<?xml version="1.0" encoding="utf-8"?>
<svg version="1.1" id="Layer_1" xmlns="http://www.w3.org/2000/svg" xmlns:xlink="http://www.w3.org/1999/xlink" x="0px" y="0px"
	 viewBox="0 0 224 61.5" style="enable-background:new 0 0 224 61.5;" xml:space="preserve">
<style type="text/css">
	.st0{fill-rule:evenodd;clip-rule:evenodd;fill:#00DE68;}
</style>
<path class="st0" d="M31.4,8.5H0V6.7h31.4V8.5z"/>
<path class="st0" d="M29.9,7.6l-6.3-6.3L24.8,0l6.9,6.9c0.3,0.3,0.3,0.9,0,1.3l-6.9,6.9l-1.3-1.3L29.9,7.6z"/>
<path class="st0" d="M69.6,8.5H38.2V6.7h31.4V8.5z"/>
<path class="st0" d="M68.1,7.6l-6.3-6.3L63,0l6.9,6.9c0.2,0.2,0.3,0.4,0.3,0.6c0,0.2-0.1,0.5-0.3,0.6L63,15.1l-1.3-1.3L68.1,7.6z"/>
<path class="st0" d="M107.8,8.5H76.3V6.7h31.4V8.5z"/>
<path class="st0" d="M106.2,7.6l-6.3-6.3l1.3-1.3l6.9,6.9c0.3,0.3,0.3,0.9,0,1.3l-6.9,6.9l-1.3-1.3L106.2,7.6z"/>
<path class="st0" d="M145.9,8.5h-31.4V6.7h31.4V8.5z"/>
<path class="st0" d="M144.4,7.6l-6.3-6.3l1.3-1.3l6.9,6.9c0.2,0.2,0.3,0.4,0.3,0.6c0,0.2-0.1,0.5-0.3,0.6l-6.9,6.9l-1.3-1.3
	L144.4,7.6z"/>
<path class="st0" d="M184.1,8.5h-31.4V6.7h31.4V8.5z"/>
<path class="st0" d="M182.6,7.6l-6.3-6.3l1.3-1.3l6.9,6.9c0.3,0.3,0.3,0.9,0,1.3l-6.9,6.9l-1.3-1.3L182.6,7.6z"/>
<path class="st0" d="M31.4,31.7H0v-1.8h31.4V31.7z"/>
<path class="st0" d="M31.4,54.9H0v-1.8h31.4V54.9z"/>
<path class="st0" d="M29.9,30.8l-6.3-6.3l1.3-1.3l6.9,6.9c0.3,0.3,0.3,0.9,0,1.3l-6.9,6.9l-1.3-1.3L29.9,30.8z"/>
<path class="st0" d="M29.9,54l-6.3-6.3l1.3-1.3l6.9,6.9c0.3,0.3,0.3,0.9,0,1.3l-6.9,6.9l-1.3-1.3L29.9,54z"/>
<path class="st0" d="M69.6,31.7H38.2v-1.8h31.4V31.7z"/>
<path class="st0" d="M69.6,54.9H38.2v-1.8h31.4V54.9z"/>
<path class="st0" d="M68.1,30.8l-6.3-6.3l1.3-1.3l6.9,6.9c0.2,0.2,0.3,0.4,0.3,0.6c0,0.2-0.1,0.5-0.3,0.6L63,38.3l-1.3-1.3
	L68.1,30.8z"/>
<path class="st0" d="M68.1,54l-6.3-6.3l1.3-1.3l6.9,6.9c0.2,0.2,0.3,0.4,0.3,0.6c0,0.2-0.1,0.5-0.3,0.6L63,61.5l-1.3-1.3L68.1,54z"
	/>
<path class="st0" d="M107.8,31.7H76.3v-1.8h31.4V31.7z"/>
<path class="st0" d="M107.8,54.9H76.3v-1.8h31.4V54.9z"/>
<path class="st0" d="M106.2,30.8l-6.3-6.3l1.3-1.3l6.9,6.9c0.3,0.3,0.3,0.9,0,1.3l-6.9,6.9l-1.3-1.3L106.2,30.8z"/>
<path class="st0" d="M106.2,54l-6.3-6.3l1.3-1.3l6.9,6.9c0.3,0.3,0.3,0.9,0,1.3l-6.9,6.9l-1.3-1.3L106.2,54z"/>
<path class="st0" d="M145.9,31.7h-31.4v-1.8h31.4V31.7z"/>
<path class="st0" d="M145.9,54.9h-31.4v-1.8h31.4V54.9z"/>
<path class="st0" d="M144.4,30.8l-6.3-6.3l1.3-1.3l6.9,6.9c0.2,0.2,0.3,0.4,0.3,0.6c0,0.2-0.1,0.5-0.3,0.6l-6.9,6.9l-1.3-1.3
	L144.4,30.8z"/>
<path class="st0" d="M144.4,54l-6.3-6.3l1.3-1.3l6.9,6.9c0.2,0.2,0.3,0.4,0.3,0.6c0,0.2-0.1,0.5-0.3,0.6l-6.9,6.9l-1.3-1.3L144.4,54
	z"/>
<path class="st0" d="M184.1,31.7h-31.4v-1.8h31.4V31.7z"/>
<path class="st0" d="M184.1,54.9h-31.4v-1.8h31.4V54.9z"/>
<path class="st0" d="M182.6,30.8l-6.3-6.3l1.3-1.3l6.9,6.9c0.3,0.3,0.3,0.9,0,1.3l-6.9,6.9l-1.3-1.3L182.6,30.8z"/>
<path class="st0" d="M182.6,54l-6.3-6.3l1.3-1.3l6.9,6.9c0.3,0.3,0.3,0.9,0,1.3l-6.9,6.9l-1.3-1.3L182.6,54z"/>
<path class="st0" d="M223.1,9.1h-31.4V7.3h31.4V9.1z"/>
<path class="st0" d="M221.6,8.2l-6.3-6.3l1.3-1.3l6.9,6.9c0.3,0.3,0.3,0.9,0,1.3l-6.9,6.9l-1.3-1.3L221.6,8.2z"/>
<path class="st0" d="M223.1,32.3h-31.4v-1.8h31.4V32.3z"/>
<path class="st0" d="M223.1,55.5h-31.4v-1.8h31.4V55.5z"/>
<path class="st0" d="M221.6,31.4l-6.3-6.3l1.3-1.3l6.9,6.9c0.3,0.3,0.3,0.9,0,1.3l-6.9,6.9l-1.3-1.3L221.6,31.4z"/>
<path class="st0" d="M221.6,54.6l-6.3-6.3l1.3-1.3l6.9,6.9c0.3,0.3,0.3,0.9,0,1.3l-6.9,6.9l-1.3-1.3L221.6,54.6z"/>
</svg>
