<?xml version="1.0" encoding="utf-8"?>
<!-- Generator: Adobe Illustrator 26.5.0, SVG Export Plug-In . SVG Version: 6.00 Build 0)  -->
<svg version="1.1" id="Layer_1" xmlns="http://www.w3.org/2000/svg" xmlns:xlink="http://www.w3.org/1999/xlink" x="0px" y="0px"
	 viewBox="0 0 1554 110" style="enable-background:new 0 0 1554 110;" xml:space="preserve">
<style type="text/css">
	.st0{fill-rule:evenodd;clip-rule:evenodd;fill:#A4F797;}
</style>
<path class="st0" d="M303.4,8.5h-31.8V6.8h31.8V8.5z"/>
<path class="st0" d="M301.8,7.7l-6.4-6.4l1.3-1.3l7,7c0.4,0.4,0.4,0.9,0,1.3l-7,7l-1.3-1.3L301.8,7.7z"/>
<path class="st0" d="M31.8,8.5H0V6.8h31.8V8.5z"/>
<path class="st0" d="M30.2,7.7l-6.4-6.4L25.1,0l7,7c0.3,0.4,0.3,0.9,0,1.3l-7,7L23.8,14L30.2,7.7z"/>
<path class="st0" d="M188.1,8.5h-31.8V6.8h31.8V8.5z"/>
<path class="st0" d="M186.6,7.7l-6.4-6.4l1.3-1.3l7,7c0.4,0.4,0.4,0.9,0,1.3l-7,7l-1.3-1.3L186.6,7.7z"/>
<path class="st0" d="M226.7,8.5H195V6.8h31.8V8.5z"/>
<path class="st0" d="M225.2,7.7l-6.4-6.4l1.3-1.3l7,7c0.2,0.2,0.3,0.4,0.3,0.6c0,0.2-0.1,0.5-0.3,0.6l-7,7l-1.3-1.3L225.2,7.7z"/>
<path class="st0" d="M303.4,31.4h-31.8v-1.8h31.8V31.4z"/>
<path class="st0" d="M301.8,30.5l-6.4-6.4l1.3-1.3l7,7c0.4,0.4,0.4,0.9,0,1.3l-7,7l-1.3-1.3L301.8,30.5z"/>
<path class="st0" d="M31.8,31.4H0v-1.8h31.8V31.4z"/>
<path class="st0" d="M30.2,30.5l-6.4-6.4l1.3-1.3l7,7c0.4,0.4,0.3,0.9,0,1.3l-7,7l-1.3-1.3L30.2,30.5z"/>
<path class="st0" d="M265.3,8.5h-31.8V6.8h31.8V8.5z"/>
<path class="st0" d="M263.8,7.7l-6.4-6.4l1.3-1.3l7,7c0.3,0.4,0.3,0.9,0,1.3l-7,7l-1.3-1.3L263.8,7.7z"/>
<path class="st0" d="M70.4,8.5H38.6V6.8h31.8V8.5z"/>
<path class="st0" d="M68.8,7.7l-6.4-6.4L63.7,0l7,7c0.4,0.4,0.4,0.9,0,1.3l-7,7L62.4,14L68.8,7.7z"/>
<path class="st0" d="M303.4,54.8h-31.8V53h31.8V54.8z"/>
<path class="st0" d="M301.8,53.9l-6.4-6.4l1.3-1.3l7,7c0.4,0.4,0.4,0.9,0,1.3l-7,7l-1.3-1.3L301.8,53.9z"/>
<path class="st0" d="M31.8,54.8H0V53h31.8V54.8z"/>
<path class="st0" d="M30.2,53.9l-6.4-6.4l1.3-1.3l7,7c0.4,0.4,0.4,0.9,0,1.3l-7,7l-1.3-1.3L30.2,53.9z"/>
<path class="st0" d="M108.9,8.5H77.2V6.8h31.8V8.5z"/>
<path class="st0" d="M107.4,7.7L101,1.3l1.3-1.3l7,7c0.4,0.4,0.4,0.9,0,1.3l-7,7L101,14L107.4,7.7z"/>
<path class="st0" d="M188.1,31.4h-31.8v-1.8h31.8V31.4z"/>
<path class="st0" d="M186.6,30.5l-6.4-6.4l1.3-1.3l7,7c0.4,0.4,0.4,0.9,0,1.3l-7,7l-1.3-1.3L186.6,30.5z"/>
<path class="st0" d="M303.4,78.3h-31.8v-1.8h31.8V78.3z"/>
<path class="st0" d="M303.4,101.8h-31.8V100h31.8V101.8z"/>
<path class="st0" d="M301.8,77.4l-6.4-6.4l1.3-1.3l7,7c0.4,0.4,0.4,0.9,0,1.3l-7,7l-1.3-1.3L301.8,77.4z"/>
<path class="st0" d="M301.8,100.9l-6.4-6.4l1.3-1.3l7,7c0.4,0.3,0.4,0.9,0,1.3l-7,7l-1.3-1.3L301.8,100.9z"/>
<path class="st0" d="M31.8,78.3H0v-1.8h31.8V78.3z"/>
<path class="st0" d="M31.8,101.8H0V100h31.8V101.8z"/>
<path class="st0" d="M30.2,77.4L23.8,71l1.3-1.3l7,7c0.4,0.4,0.4,0.9,0,1.3l-7,7l-1.3-1.3L30.2,77.4z"/>
<path class="st0" d="M30.2,100.9l-6.4-6.4l1.3-1.3l7,7c0.4,0.3,0.4,0.9,0,1.3l-7,7l-1.3-1.3L30.2,100.9z"/>
<path class="st0" d="M226.7,31.4H195v-1.8h31.8V31.4z"/>
<path class="st0" d="M225.2,30.5l-6.4-6.4l1.3-1.3l7,7c0.2,0.2,0.3,0.4,0.3,0.6c0,0.2-0.1,0.5-0.3,0.6l-7,7l-1.3-1.3L225.2,30.5z"/>
<path class="st0" d="M265.3,31.4h-31.8v-1.8h31.8V31.4z"/>
<path class="st0" d="M263.8,30.5l-6.4-6.4l1.3-1.3l7,7c0.3,0.4,0.3,0.9,0,1.3l-7,7l-1.3-1.3L263.8,30.5z"/>
<path class="st0" d="M70.4,31.4H38.6v-1.8h31.8V31.4z"/>
<path class="st0" d="M68.8,30.5l-6.4-6.4l1.3-1.3l7,7c0.2,0.2,0.3,0.4,0.3,0.6c0,0.2-0.1,0.5-0.3,0.6l-7,7l-1.3-1.3L68.8,30.5z"/>
<path class="st0" d="M108.9,31.4H77.2v-1.8h31.8V31.4z"/>
<path class="st0" d="M107.4,30.5l-6.4-6.4l1.3-1.3l7,7c0.4,0.4,0.4,0.9,0,1.3l-7,7l-1.3-1.3L107.4,30.5z"/>
<path class="st0" d="M188.1,54.8h-31.8V53h31.8V54.8z"/>
<path class="st0" d="M186.6,53.9l-6.4-6.4l1.3-1.3l7,7c0.4,0.4,0.4,0.9,0,1.3l-7,7l-1.3-1.3L186.6,53.9z"/>
<path class="st0" d="M226.7,54.8H195V53h31.8V54.8z"/>
<path class="st0" d="M225.2,53.9l-6.4-6.4l1.3-1.3l7,7c0.2,0.2,0.3,0.4,0.3,0.6c0,0.2-0.1,0.5-0.3,0.6l-7,7l-1.3-1.3L225.2,53.9z"/>
<path class="st0" d="M265.3,54.8h-31.8V53h31.8V54.8z"/>
<path class="st0" d="M263.8,53.9l-6.4-6.4l1.3-1.3l7,7c0.3,0.4,0.3,0.9,0,1.3l-7,7l-1.3-1.3L263.8,53.9z"/>
<path class="st0" d="M70.4,54.8H38.6V53h31.8V54.8z"/>
<path class="st0" d="M68.8,53.9l-6.4-6.4l1.3-1.3l7,7c0.2,0.2,0.3,0.4,0.3,0.6c0,0.2-0.1,0.5-0.3,0.6l-7,7l-1.3-1.3L68.8,53.9z"/>
<path class="st0" d="M108.9,54.8H77.2V53h31.8V54.8z"/>
<path class="st0" d="M107.4,53.9l-6.4-6.4l1.3-1.3l7,7c0.4,0.4,0.4,0.9,0,1.3l-7,7l-1.3-1.3L107.4,53.9z"/>
<path class="st0" d="M188.1,78.3h-31.8v-1.8h31.8V78.3z"/>
<path class="st0" d="M188.1,101.8h-31.8V100h31.8V101.8z"/>
<path class="st0" d="M186.6,77.4l-6.4-6.4l1.3-1.3l7,7c0.4,0.4,0.4,0.9,0,1.3l-7,7l-1.3-1.3L186.6,77.4z"/>
<path class="st0" d="M186.6,100.9l-6.4-6.4l1.3-1.3l7,7c0.4,0.3,0.4,0.9,0,1.3l-7,7l-1.3-1.3L186.6,100.9z"/>
<path class="st0" d="M226.7,78.3H195v-1.8h31.8V78.3z"/>
<path class="st0" d="M226.7,101.8H195V100h31.8V101.8z"/>
<path class="st0" d="M225.2,77.4l-6.4-6.4l1.3-1.3l7,7c0.2,0.2,0.3,0.4,0.3,0.6c0,0.2-0.1,0.5-0.3,0.6l-7,7l-1.3-1.3L225.2,77.4z"/>
<path class="st0" d="M225.2,100.9l-6.4-6.4l1.3-1.3l7,7c0.2,0.2,0.3,0.4,0.3,0.6c0,0.2-0.1,0.5-0.3,0.6l-7,7l-1.3-1.3L225.2,100.9z"
	/>
<path class="st0" d="M265.3,78.3h-31.8v-1.8h31.8V78.3z"/>
<path class="st0" d="M265.3,101.8h-31.8V100h31.8V101.8z"/>
<path class="st0" d="M263.8,77.4l-6.4-6.4l1.3-1.3l7,7c0.3,0.4,0.3,0.9,0,1.3l-7,7l-1.3-1.3L263.8,77.4z"/>
<path class="st0" d="M263.8,100.9l-6.4-6.4l1.3-1.3l7,7c0.3,0.3,0.3,0.9,0,1.3l-7,7l-1.3-1.3L263.8,100.9z"/>
<path class="st0" d="M70.4,78.3H38.6v-1.8h31.8V78.3z"/>
<path class="st0" d="M70.4,101.8H38.6V100h31.8V101.8z"/>
<path class="st0" d="M68.8,77.4L62.4,71l1.3-1.3l7,7c0.2,0.2,0.3,0.4,0.3,0.6c0,0.2-0.1,0.5-0.3,0.6l-7,7l-1.3-1.3L68.8,77.4z"/>
<path class="st0" d="M68.8,100.9l-6.4-6.4l1.3-1.3l7,7c0.2,0.2,0.3,0.4,0.3,0.6c0,0.2-0.1,0.5-0.3,0.6l-7,7l-1.3-1.3L68.8,100.9z"/>
<path class="st0" d="M108.9,78.3H77.2v-1.8h31.8V78.3z"/>
<path class="st0" d="M108.9,101.8H77.2V100h31.8V101.8z"/>
<path class="st0" d="M107.4,77.4L101,71l1.3-1.3l7,7c0.4,0.4,0.4,0.9,0,1.3l-7,7l-1.3-1.3L107.4,77.4z"/>
<path class="st0" d="M107.4,100.9l-6.4-6.4l1.3-1.3l7,7c0.4,0.3,0.4,0.9,0,1.3l-7,7l-1.3-1.3L107.4,100.9z"/>
<path class="st0" d="M148.4,9.2h-31.8V7.4h31.8V9.2z"/>
<path class="st0" d="M146.8,8.3l-6.4-6.4l1.3-1.3l7,7c0.4,0.4,0.4,0.9,0,1.3l-7,7l-1.3-1.3L146.8,8.3z"/>
<path class="st0" d="M148.4,32h-31.8v-1.8h31.8V32z"/>
<path class="st0" d="M146.8,31.2l-6.4-6.4l1.3-1.3l7,7c0.4,0.4,0.4,0.9,0,1.3l-7,7l-1.3-1.3L146.8,31.2z"/>
<path class="st0" d="M148.4,55.5h-31.8v-1.8h31.8V55.5z"/>
<path class="st0" d="M146.8,54.6l-6.4-6.4l1.3-1.3l7,7c0.4,0.4,0.4,0.9,0,1.3l-7,7l-1.3-1.3L146.8,54.6z"/>
<path class="st0" d="M148.4,79h-31.8v-1.8h31.8V79z"/>
<path class="st0" d="M148.4,102.4h-31.8v-1.8h31.8V102.4z"/>
<path class="st0" d="M146.8,78.1l-6.4-6.4l1.3-1.3l7,7c0.4,0.4,0.4,0.9,0,1.3l-7,7l-1.3-1.3L146.8,78.1z"/>
<path class="st0" d="M146.8,101.5l-6.4-6.4l1.3-1.3l7,7c0.4,0.4,0.4,0.9,0,1.3l-7,7l-1.3-1.3L146.8,101.5z"/>
<path class="st0" d="M928.2,8.5h-31.8V6.8h31.8V8.5z"/>
<path class="st0" d="M926.7,7.7l-6.4-6.4l1.3-1.3l7,7c0.3,0.4,0.3,0.9,0,1.3l-7,7l-1.3-1.3L926.7,7.7z"/>
<path class="st0" d="M656.6,8.5h-31.8V6.8h31.8V8.5z"/>
<path class="st0" d="M655.1,7.7l-6.4-6.4l1.3-1.3l7,7c0.4,0.4,0.4,0.9,0,1.3l-7,7l-1.3-1.3L655.1,7.7z"/>
<path class="st0" d="M813,8.5h-31.8V6.8H813V8.5z"/>
<path class="st0" d="M811.4,7.7L805,1.3l1.3-1.3l7,7c0.3,0.4,0.3,0.9,0,1.3l-7,7L805,14L811.4,7.7z"/>
<path class="st0" d="M851.6,8.5h-31.8V6.8h31.8V8.5z"/>
<path class="st0" d="M850,7.7l-6.4-6.4l1.3-1.3l7,7c0.2,0.2,0.3,0.4,0.3,0.6c0,0.2-0.1,0.5-0.3,0.6l-7,7l-1.3-1.3L850,7.7z"/>
<path class="st0" d="M928.2,31.4h-31.8v-1.8h31.8V31.4z"/>
<path class="st0" d="M926.7,30.5l-6.4-6.4l1.3-1.3l7,7c0.3,0.4,0.3,0.9,0,1.3l-7,7l-1.3-1.3L926.7,30.5z"/>
<path class="st0" d="M656.6,31.4h-31.8v-1.8h31.8V31.4z"/>
<path class="st0" d="M655.1,30.5l-6.4-6.4l1.3-1.3l7,7c0.4,0.4,0.4,0.9,0,1.3l-7,7l-1.3-1.3L655.1,30.5z"/>
<path class="st0" d="M890.1,8.5h-31.8V6.8h31.8V8.5z"/>
<path class="st0" d="M888.6,7.7l-6.4-6.4l1.3-1.3l7,7c0.3,0.4,0.3,0.9,0,1.3l-7,7l-1.3-1.3L888.6,7.7z"/>
<path class="st0" d="M695.2,8.5h-31.8V6.8h31.8V8.5z"/>
<path class="st0" d="M693.7,7.7l-6.4-6.4l1.3-1.3l7,7c0.3,0.4,0.3,0.9,0,1.3l-7,7l-1.3-1.3L693.7,7.7z"/>
<path class="st0" d="M928.2,54.8h-31.8V53h31.8V54.8z"/>
<path class="st0" d="M926.7,53.9l-6.4-6.4l1.3-1.3l7,7c0.3,0.4,0.3,0.9,0,1.3l-7,7l-1.3-1.3L926.7,53.9z"/>
<path class="st0" d="M656.6,54.8h-31.8V53h31.8V54.8z"/>
<path class="st0" d="M655.1,53.9l-6.4-6.4l1.3-1.3l7,7c0.4,0.4,0.4,0.9,0,1.3l-7,7l-1.3-1.3L655.1,53.9z"/>
<path class="st0" d="M733.8,8.5H702V6.8h31.8V8.5z"/>
<path class="st0" d="M732.2,7.7l-6.4-6.4l1.3-1.3l7,7c0.4,0.4,0.4,0.9,0,1.3l-7,7l-1.3-1.3L732.2,7.7z"/>
<path class="st0" d="M813,31.4h-31.8v-1.8H813V31.4z"/>
<path class="st0" d="M811.4,30.5l-6.4-6.4l1.3-1.3l7,7c0.3,0.4,0.3,0.9,0,1.3l-7,7l-1.3-1.3L811.4,30.5z"/>
<path class="st0" d="M928.2,78.3h-31.8v-1.8h31.8V78.3z"/>
<path class="st0" d="M928.2,101.8h-31.8V100h31.8V101.8z"/>
<path class="st0" d="M926.7,77.4l-6.4-6.4l1.3-1.3l7,7c0.3,0.4,0.3,0.9,0,1.3l-7,7l-1.3-1.3L926.7,77.4z"/>
<path class="st0" d="M926.7,100.9l-6.4-6.4l1.3-1.3l7,7c0.3,0.3,0.3,0.9,0,1.3l-7,7l-1.3-1.3L926.7,100.9z"/>
<path class="st0" d="M656.6,78.3h-31.8v-1.8h31.8V78.3z"/>
<path class="st0" d="M656.6,101.8h-31.8V100h31.8V101.8z"/>
<path class="st0" d="M655.1,77.4l-6.4-6.4l1.3-1.3l7,7c0.4,0.4,0.4,0.9,0,1.3l-7,7l-1.3-1.3L655.1,77.4z"/>
<path class="st0" d="M655.1,100.9l-6.4-6.4l1.3-1.3l7,7c0.4,0.3,0.4,0.9,0,1.3l-7,7l-1.3-1.3L655.1,100.9z"/>
<path class="st0" d="M851.6,31.4h-31.8v-1.8h31.8V31.4z"/>
<path class="st0" d="M850,30.5l-6.4-6.4l1.3-1.3l7,7c0.2,0.2,0.3,0.4,0.3,0.6c0,0.2-0.1,0.5-0.3,0.6l-7,7l-1.3-1.3L850,30.5z"/>
<path class="st0" d="M890.1,31.4h-31.8v-1.8h31.8V31.4z"/>
<path class="st0" d="M888.6,30.5l-6.4-6.4l1.3-1.3l7,7c0.3,0.4,0.3,0.9,0,1.3l-7,7l-1.3-1.3L888.6,30.5z"/>
<path class="st0" d="M695.2,31.4h-31.8v-1.8h31.8V31.4z"/>
<path class="st0" d="M693.7,30.5l-6.4-6.4l1.3-1.3l7,7c0.2,0.2,0.3,0.4,0.3,0.6c0,0.2-0.1,0.5-0.3,0.6l-7,7l-1.3-1.3L693.7,30.5z"/>
<path class="st0" d="M733.8,31.4H702v-1.8h31.8V31.4z"/>
<path class="st0" d="M732.2,30.5l-6.4-6.4l1.3-1.3l7,7c0.4,0.4,0.3,0.9,0,1.3l-7,7l-1.3-1.3L732.2,30.5z"/>
<path class="st0" d="M813,54.8h-31.8V53H813V54.8z"/>
<path class="st0" d="M811.4,53.9l-6.4-6.4l1.3-1.3l7,7c0.3,0.4,0.3,0.9,0,1.3l-7,7l-1.3-1.3L811.4,53.9z"/>
<path class="st0" d="M851.6,54.8h-31.8V53h31.8V54.8z"/>
<path class="st0" d="M850,53.9l-6.4-6.4l1.3-1.3l7,7c0.2,0.2,0.3,0.4,0.3,0.6c0,0.2-0.1,0.5-0.3,0.6l-7,7l-1.3-1.3L850,53.9z"/>
<path class="st0" d="M890.1,54.8h-31.8V53h31.8V54.8z"/>
<path class="st0" d="M888.6,53.9l-6.4-6.4l1.3-1.3l7,7c0.4,0.4,0.4,0.9,0,1.3l-7,7l-1.3-1.3L888.6,53.9z"/>
<path class="st0" d="M695.2,54.8h-31.8V53h31.8V54.8z"/>
<path class="st0" d="M693.7,53.9l-6.4-6.4l1.3-1.3l7,7c0.2,0.2,0.3,0.4,0.3,0.6c0,0.2-0.1,0.5-0.3,0.6l-7,7l-1.3-1.3L693.7,53.9z"/>
<path class="st0" d="M733.8,54.8H702V53h31.8V54.8z"/>
<path class="st0" d="M732.2,53.9l-6.4-6.4l1.3-1.3l7,7c0.3,0.4,0.4,0.9,0,1.3l-7,7l-1.3-1.3L732.2,53.9z"/>
<path class="st0" d="M813,78.3h-31.8v-1.8H813V78.3z"/>
<path class="st0" d="M813,101.8h-31.8V100H813V101.8z"/>
<path class="st0" d="M811.4,77.4L805,71l1.3-1.3l7,7c0.3,0.4,0.3,0.9,0,1.3l-7,7l-1.3-1.3L811.4,77.4z"/>
<path class="st0" d="M811.4,100.9l-6.4-6.4l1.3-1.3l7,7c0.3,0.3,0.3,0.9,0,1.3l-7,7l-1.3-1.3L811.4,100.9z"/>
<path class="st0" d="M851.6,78.3h-31.8v-1.8h31.8V78.3z"/>
<path class="st0" d="M851.6,101.8h-31.8V100h31.8V101.8z"/>
<path class="st0" d="M850,77.4l-6.4-6.4l1.3-1.3l7,7c0.2,0.2,0.3,0.4,0.3,0.6c0,0.2-0.1,0.5-0.3,0.6l-7,7l-1.3-1.3L850,77.4z"/>
<path class="st0" d="M850,100.9l-6.4-6.4l1.3-1.3l7,7c0.2,0.2,0.3,0.4,0.3,0.6c0,0.2-0.1,0.5-0.3,0.6l-7,7l-1.3-1.3L850,100.9z"/>
<path class="st0" d="M890.1,78.3h-31.8v-1.8h31.8V78.3z"/>
<path class="st0" d="M890.1,101.8h-31.8V100h31.8V101.8z"/>
<path class="st0" d="M888.6,77.4l-6.4-6.4l1.3-1.3l7,7c0.4,0.4,0.4,0.9,0,1.3l-7,7l-1.3-1.3L888.6,77.4z"/>
<path class="st0" d="M888.6,100.9l-6.4-6.4l1.3-1.3l7,7c0.4,0.3,0.4,0.9,0,1.3l-7,7l-1.3-1.3L888.6,100.9z"/>
<path class="st0" d="M695.2,78.3h-31.8v-1.8h31.8V78.3z"/>
<path class="st0" d="M695.2,101.8h-31.8V100h31.8V101.8z"/>
<path class="st0" d="M693.7,77.4l-6.4-6.4l1.3-1.3l7,7c0.2,0.2,0.3,0.4,0.3,0.6c0,0.2-0.1,0.5-0.3,0.6l-7,7l-1.3-1.3L693.7,77.4z"/>
<path class="st0" d="M693.7,100.9l-6.4-6.4l1.3-1.3l7,7c0.2,0.2,0.3,0.4,0.3,0.6c0,0.2-0.1,0.5-0.3,0.6l-7,7l-1.3-1.3L693.7,100.9z"
	/>
<path class="st0" d="M733.8,78.3H702v-1.8h31.8V78.3z"/>
<path class="st0" d="M733.8,101.8H702V100h31.8V101.8z"/>
<path class="st0" d="M732.2,77.4l-6.4-6.4l1.3-1.3l7,7c0.3,0.4,0.4,0.9,0,1.3l-7,7l-1.3-1.3L732.2,77.4z"/>
<path class="st0" d="M732.2,100.9l-6.4-6.4l1.3-1.3l7,7c0.3,0.3,0.4,0.9,0,1.3l-7,7l-1.3-1.3L732.2,100.9z"/>
<path class="st0" d="M773.2,9.2h-31.8V7.4h31.8V9.2z"/>
<path class="st0" d="M771.7,8.3l-6.4-6.4l1.3-1.3l7,7c0.4,0.4,0.4,0.9,0,1.3l-7,7l-1.3-1.3L771.7,8.3z"/>
<path class="st0" d="M773.2,32h-31.8v-1.8h31.8V32z"/>
<path class="st0" d="M771.7,31.2l-6.4-6.4l1.3-1.3l7,7c0.4,0.4,0.4,0.9,0,1.3l-7,7l-1.3-1.3L771.7,31.2z"/>
<path class="st0" d="M773.2,55.5h-31.8v-1.8h31.8V55.5z"/>
<path class="st0" d="M771.7,54.6l-6.4-6.4l1.3-1.3l7,7c0.4,0.4,0.4,0.9,0,1.3l-7,7l-1.3-1.3L771.7,54.6z"/>
<path class="st0" d="M773.2,79h-31.8v-1.8h31.8V79z"/>
<path class="st0" d="M773.2,102.4h-31.8v-1.8h31.8V102.4z"/>
<path class="st0" d="M771.7,78.1l-6.4-6.4l1.3-1.3l7,7c0.4,0.4,0.4,0.9,0,1.3l-7,7l-1.3-1.3L771.7,78.1z"/>
<path class="st0" d="M771.7,101.5l-6.4-6.4l1.3-1.3l7,7c0.4,0.4,0.4,0.9,0,1.3l-7,7l-1.3-1.3L771.7,101.5z"/>
<path class="st0" d="M615.8,8.5H584V6.8h31.8V8.5z"/>
<path class="st0" d="M614.3,7.7l-6.4-6.4l1.3-1.3l7,7c0.4,0.4,0.4,0.9,0,1.3l-7,7l-1.3-1.3L614.3,7.7z"/>
<path class="st0" d="M344.2,8.5h-31.8V6.8h31.8V8.5z"/>
<path class="st0" d="M342.6,7.7l-6.4-6.4l1.3-1.3l7,7c0.4,0.4,0.4,0.9,0,1.3l-7,7l-1.3-1.3L342.6,7.7z"/>
<path class="st0" d="M500.5,8.5h-31.8V6.8h31.8V8.5z"/>
<path class="st0" d="M499,7.7l-6.4-6.4l1.3-1.3l7,7c0.4,0.4,0.4,0.9,0,1.3l-7,7l-1.3-1.3L499,7.7z"/>
<path class="st0" d="M539.1,8.5h-31.8V6.8h31.8V8.5z"/>
<path class="st0" d="M537.6,7.7l-6.4-6.4l1.3-1.3l7,7c0.2,0.2,0.3,0.4,0.3,0.6c0,0.2-0.1,0.5-0.3,0.6l-7,7l-1.3-1.3L537.6,7.7z"/>
<path class="st0" d="M615.8,31.4H584v-1.8h31.8V31.4z"/>
<path class="st0" d="M614.3,30.5l-6.4-6.4l1.3-1.3l7,7c0.4,0.4,0.4,0.9,0,1.3l-7,7l-1.3-1.3L614.3,30.5z"/>
<path class="st0" d="M344.2,31.4h-31.8v-1.8h31.8V31.4z"/>
<path class="st0" d="M342.6,30.5l-6.4-6.4l1.3-1.3l7,7c0.4,0.4,0.4,0.9,0,1.3l-7,7l-1.3-1.3L342.6,30.5z"/>
<path class="st0" d="M577.7,8.5H546V6.8h31.8V8.5z"/>
<path class="st0" d="M576.2,7.7l-6.4-6.4l1.3-1.3l7,7c0.3,0.4,0.3,0.9,0,1.3l-7,7l-1.3-1.3L576.2,7.7z"/>
<path class="st0" d="M382.8,8.5H351V6.8h31.8V8.5z"/>
<path class="st0" d="M381.2,7.7l-6.4-6.4l1.3-1.3l7,7c0.4,0.4,0.4,0.9,0,1.3l-7,7l-1.3-1.3L381.2,7.7z"/>
<path class="st0" d="M615.8,54.8H584V53h31.8V54.8z"/>
<path class="st0" d="M614.3,53.9l-6.4-6.4l1.3-1.3l7,7c0.4,0.4,0.4,0.9,0,1.3l-7,7l-1.3-1.3L614.3,53.9z"/>
<path class="st0" d="M344.2,54.8h-31.8V53h31.8V54.8z"/>
<path class="st0" d="M342.6,53.9l-6.4-6.4l1.3-1.3l7,7c0.4,0.4,0.4,0.9,0,1.3l-7,7l-1.3-1.3L342.6,53.9z"/>
<path class="st0" d="M421.4,8.5h-31.8V6.8h31.8V8.5z"/>
<path class="st0" d="M419.8,7.7l-6.4-6.4l1.3-1.3l7,7c0.4,0.4,0.4,0.9,0,1.3l-7,7l-1.3-1.3L419.8,7.7z"/>
<path class="st0" d="M500.5,31.4h-31.8v-1.8h31.8V31.4z"/>
<path class="st0" d="M499,30.5l-6.4-6.4l1.3-1.3l7,7c0.4,0.4,0.4,0.9,0,1.3l-7,7l-1.3-1.3L499,30.5z"/>
<path class="st0" d="M615.8,78.3H584v-1.8h31.8V78.3z"/>
<path class="st0" d="M615.8,101.8H584V100h31.8V101.8z"/>
<path class="st0" d="M614.3,77.4l-6.4-6.4l1.3-1.3l7,7c0.4,0.4,0.4,0.9,0,1.3l-7,7l-1.3-1.3L614.3,77.4z"/>
<path class="st0" d="M614.3,100.9l-6.4-6.4l1.3-1.3l7,7c0.4,0.3,0.4,0.9,0,1.3l-7,7l-1.3-1.3L614.3,100.9z"/>
<path class="st0" d="M344.2,78.3h-31.8v-1.8h31.8V78.3z"/>
<path class="st0" d="M344.2,101.8h-31.8V100h31.8V101.8z"/>
<path class="st0" d="M342.6,77.4l-6.4-6.4l1.3-1.3l7,7c0.4,0.4,0.4,0.9,0,1.3l-7,7l-1.3-1.3L342.6,77.4z"/>
<path class="st0" d="M342.6,100.9l-6.4-6.4l1.3-1.3l7,7c0.4,0.3,0.4,0.9,0,1.3l-7,7l-1.3-1.3L342.6,100.9z"/>
<path class="st0" d="M539.1,31.4h-31.8v-1.8h31.8V31.4z"/>
<path class="st0" d="M537.6,30.5l-6.4-6.4l1.3-1.3l7,7c0.2,0.2,0.3,0.4,0.3,0.6c0,0.2-0.1,0.5-0.3,0.6l-7,7l-1.3-1.3L537.6,30.5z"/>
<path class="st0" d="M577.7,31.4H546v-1.8h31.8V31.4z"/>
<path class="st0" d="M576.2,30.5l-6.4-6.4l1.3-1.3l7,7c0.3,0.4,0.3,0.9,0,1.3l-7,7l-1.3-1.3L576.2,30.5z"/>
<path class="st0" d="M382.8,31.4H351v-1.8h31.8V31.4z"/>
<path class="st0" d="M381.2,30.5l-6.4-6.4l1.3-1.3l7,7c0.2,0.2,0.3,0.4,0.3,0.6c0,0.2-0.1,0.5-0.3,0.6l-7,7l-1.3-1.3L381.2,30.5z"/>
<path class="st0" d="M421.4,31.4h-31.8v-1.8h31.8V31.4z"/>
<path class="st0" d="M419.8,30.5l-6.4-6.4l1.3-1.3l7,7c0.4,0.4,0.4,0.9,0,1.3l-7,7l-1.3-1.3L419.8,30.5z"/>
<path class="st0" d="M500.5,54.8h-31.8V53h31.8V54.8z"/>
<path class="st0" d="M499,53.9l-6.4-6.4l1.3-1.3l7,7c0.4,0.4,0.4,0.9,0,1.3l-7,7l-1.3-1.3L499,53.9z"/>
<path class="st0" d="M539.1,54.8h-31.8V53h31.8V54.8z"/>
<path class="st0" d="M537.6,53.9l-6.4-6.4l1.3-1.3l7,7c0.2,0.2,0.3,0.4,0.3,0.6c0,0.2-0.1,0.5-0.3,0.6l-7,7l-1.3-1.3L537.6,53.9z"/>
<path class="st0" d="M577.7,54.8H546V53h31.8V54.8z"/>
<path class="st0" d="M576.2,53.9l-6.4-6.4l1.3-1.3l7,7c0.3,0.4,0.3,0.9,0,1.3l-7,7l-1.3-1.3L576.2,53.9z"/>
<path class="st0" d="M382.8,54.8H351V53h31.8V54.8z"/>
<path class="st0" d="M381.2,53.9l-6.4-6.4l1.3-1.3l7,7c0.2,0.2,0.3,0.4,0.3,0.6c0,0.2-0.1,0.5-0.3,0.6l-7,7l-1.3-1.3L381.2,53.9z"/>
<path class="st0" d="M421.4,54.8h-31.8V53h31.8V54.8z"/>
<path class="st0" d="M419.8,53.9l-6.4-6.4l1.3-1.3l7,7c0.4,0.4,0.4,0.9,0,1.3l-7,7l-1.3-1.3L419.8,53.9z"/>
<path class="st0" d="M500.5,78.3h-31.8v-1.8h31.8V78.3z"/>
<path class="st0" d="M500.5,101.8h-31.8V100h31.8V101.8z"/>
<path class="st0" d="M499,77.4l-6.4-6.4l1.3-1.3l7,7c0.4,0.4,0.4,0.9,0,1.3l-7,7l-1.3-1.3L499,77.4z"/>
<path class="st0" d="M499,100.9l-6.4-6.4l1.3-1.3l7,7c0.4,0.3,0.4,0.9,0,1.3l-7,7l-1.3-1.3L499,100.9z"/>
<path class="st0" d="M539.1,78.3h-31.8v-1.8h31.8V78.3z"/>
<path class="st0" d="M539.1,101.8h-31.8V100h31.8V101.8z"/>
<path class="st0" d="M537.6,77.4l-6.4-6.4l1.3-1.3l7,7c0.2,0.2,0.3,0.4,0.3,0.6c0,0.2-0.1,0.5-0.3,0.6l-7,7l-1.3-1.3L537.6,77.4z"/>
<path class="st0" d="M537.6,100.9l-6.4-6.4l1.3-1.3l7,7c0.2,0.2,0.3,0.4,0.3,0.6c0,0.2-0.1,0.5-0.3,0.6l-7,7l-1.3-1.3L537.6,100.9z"
	/>
<path class="st0" d="M577.7,78.3H546v-1.8h31.8V78.3z"/>
<path class="st0" d="M577.7,101.8H546V100h31.8V101.8z"/>
<path class="st0" d="M576.2,77.4l-6.4-6.4l1.3-1.3l7,7c0.3,0.4,0.3,0.9,0,1.3l-7,7l-1.3-1.3L576.2,77.4z"/>
<path class="st0" d="M576.2,100.9l-6.4-6.4l1.3-1.3l7,7c0.3,0.3,0.3,0.9,0,1.3l-7,7l-1.3-1.3L576.2,100.9z"/>
<path class="st0" d="M382.8,78.3H351v-1.8h31.8V78.3z"/>
<path class="st0" d="M382.8,101.8H351V100h31.8V101.8z"/>
<path class="st0" d="M381.2,77.4l-6.4-6.4l1.3-1.3l7,7c0.2,0.2,0.3,0.4,0.3,0.6c0,0.2-0.1,0.5-0.3,0.6l-7,7l-1.3-1.3L381.2,77.4z"/>
<path class="st0" d="M381.2,100.9l-6.4-6.4l1.3-1.3l7,7c0.2,0.2,0.3,0.4,0.3,0.6c0,0.2-0.1,0.5-0.3,0.6l-7,7l-1.3-1.3L381.2,100.9z"
	/>
<path class="st0" d="M421.4,78.3h-31.8v-1.8h31.8V78.3z"/>
<path class="st0" d="M421.4,101.8h-31.8V100h31.8V101.8z"/>
<path class="st0" d="M419.8,77.4l-6.4-6.4l1.3-1.3l7,7c0.4,0.4,0.4,0.9,0,1.3l-7,7l-1.3-1.3L419.8,77.4z"/>
<path class="st0" d="M419.8,100.9l-6.4-6.4l1.3-1.3l7,7c0.4,0.3,0.4,0.9,0,1.3l-7,7l-1.3-1.3L419.8,100.9z"/>
<path class="st0" d="M460.8,9.2H429V7.4h31.8V9.2z"/>
<path class="st0" d="M459.2,8.3l-6.4-6.4l1.3-1.3l7,7c0.4,0.4,0.4,0.9,0,1.3l-7,7l-1.3-1.3L459.2,8.3z"/>
<path class="st0" d="M460.8,32H429v-1.8h31.8V32z"/>
<path class="st0" d="M459.2,31.2l-6.4-6.4l1.3-1.3l7,7c0.4,0.4,0.4,0.9,0,1.3l-7,7l-1.3-1.3L459.2,31.2z"/>
<path class="st0" d="M460.8,55.5H429v-1.8h31.8V55.5z"/>
<path class="st0" d="M459.2,54.6l-6.4-6.4l1.3-1.3l7,7c0.4,0.4,0.4,0.9,0,1.3l-7,7l-1.3-1.3L459.2,54.6z"/>
<path class="st0" d="M460.8,79H429v-1.8h31.8V79z"/>
<path class="st0" d="M460.8,102.4H429v-1.8h31.8V102.4z"/>
<path class="st0" d="M459.2,78.1l-6.4-6.4l1.3-1.3l7,7c0.4,0.4,0.4,0.9,0,1.3l-7,7l-1.3-1.3L459.2,78.1z"/>
<path class="st0" d="M459.2,101.5l-6.4-6.4l1.3-1.3l7,7c0.4,0.4,0.4,0.9,0,1.3l-7,7l-1.3-1.3L459.2,101.5z"/>
<path class="st0" d="M1240.6,8.5h-31.8V6.8h31.8V8.5z"/>
<path class="st0" d="M1239.1,7.7l-6.4-6.4L1234,0l7,7c0.3,0.4,0.3,0.9,0,1.3l-7,7l-1.3-1.3L1239.1,7.7z"/>
<path class="st0" d="M969,8.5h-31.8V6.8H969V8.5z"/>
<path class="st0" d="M967.5,7.7l-6.4-6.4l1.3-1.3l7,7c0.3,0.4,0.3,0.9,0,1.3l-7,7l-1.3-1.3L967.5,7.7z"/>
<path class="st0" d="M1125.4,8.5h-31.8V6.8h31.8V8.5z"/>
<path class="st0" d="M1123.8,7.7l-6.4-6.4l1.3-1.3l7,7c0.3,0.4,0.3,0.9,0,1.3l-7,7l-1.3-1.3L1123.8,7.7z"/>
<path class="st0" d="M1164,8.5h-31.8V6.8h31.8V8.5z"/>
<path class="st0" d="M1162.4,7.7l-6.4-6.4l1.3-1.3l7,7c0.2,0.2,0.3,0.4,0.3,0.6c0,0.2-0.1,0.5-0.3,0.6l-7,7l-1.3-1.3L1162.4,7.7z"/>
<path class="st0" d="M1240.6,31.4h-31.8v-1.8h31.8V31.4z"/>
<path class="st0" d="M1239.1,30.5l-6.4-6.4l1.3-1.3l7,7c0.3,0.4,0.3,0.9,0,1.3l-7,7l-1.3-1.3L1239.1,30.5z"/>
<path class="st0" d="M969,31.4h-31.8v-1.8H969V31.4z"/>
<path class="st0" d="M967.5,30.5l-6.4-6.4l1.3-1.3l7,7c0.3,0.4,0.3,0.9,0,1.3l-7,7l-1.3-1.3L967.5,30.5z"/>
<path class="st0" d="M1202.6,8.5h-31.8V6.8h31.8V8.5z"/>
<path class="st0" d="M1201,7.7l-6.4-6.4l1.3-1.3l7,7c0.3,0.4,0.3,0.9,0,1.3l-7,7l-1.3-1.3L1201,7.7z"/>
<path class="st0" d="M1007.6,8.5h-31.8V6.8h31.8V8.5z"/>
<path class="st0" d="M1006.1,7.7l-6.4-6.4L1001,0l7,7c0.4,0.4,0.4,0.9,0,1.3l-7,7l-1.3-1.3L1006.1,7.7z"/>
<path class="st0" d="M1240.6,54.8h-31.8V53h31.8V54.8z"/>
<path class="st0" d="M1239.1,53.9l-6.4-6.4l1.3-1.3l7,7c0.3,0.4,0.3,0.9,0,1.3l-7,7l-1.3-1.3L1239.1,53.9z"/>
<path class="st0" d="M969,54.8h-31.8V53H969V54.8z"/>
<path class="st0" d="M967.5,53.9l-6.4-6.4l1.3-1.3l7,7c0.3,0.4,0.3,0.9,0,1.3l-7,7l-1.3-1.3L967.5,53.9z"/>
<path class="st0" d="M1046.2,8.5h-31.7V6.8h31.7V8.5z"/>
<path class="st0" d="M1044.7,7.7l-6.4-6.4l1.3-1.3l7,7c0.4,0.4,0.4,0.9,0,1.3l-7,7l-1.3-1.3L1044.7,7.7z"/>
<path class="st0" d="M1125.4,31.4h-31.8v-1.8h31.8V31.4z"/>
<path class="st0" d="M1123.8,30.5l-6.4-6.4l1.3-1.3l7,7c0.3,0.4,0.3,0.9,0,1.3l-7,7l-1.3-1.3L1123.8,30.5z"/>
<path class="st0" d="M1240.6,78.3h-31.8v-1.8h31.8V78.3z"/>
<path class="st0" d="M1240.6,101.8h-31.8V100h31.8V101.8z"/>
<path class="st0" d="M1239.1,77.4l-6.4-6.4l1.3-1.3l7,7c0.3,0.4,0.3,0.9,0,1.3l-7,7l-1.3-1.3L1239.1,77.4z"/>
<path class="st0" d="M1239.1,100.9l-6.4-6.4l1.3-1.3l7,7c0.3,0.3,0.3,0.9,0,1.3l-7,7l-1.3-1.3L1239.1,100.9z"/>
<path class="st0" d="M969,78.3h-31.8v-1.8H969V78.3z"/>
<path class="st0" d="M969,101.8h-31.8V100H969V101.8z"/>
<path class="st0" d="M967.5,77.4l-6.4-6.4l1.3-1.3l7,7c0.3,0.4,0.3,0.9,0,1.3l-7,7l-1.3-1.3L967.5,77.4z"/>
<path class="st0" d="M967.5,100.9l-6.4-6.4l1.3-1.3l7,7c0.3,0.3,0.3,0.9,0,1.3l-7,7l-1.3-1.3L967.5,100.9z"/>
<path class="st0" d="M1164,31.4h-31.8v-1.8h31.8V31.4z"/>
<path class="st0" d="M1162.4,30.5l-6.4-6.4l1.3-1.3l7,7c0.2,0.2,0.3,0.4,0.3,0.6c0,0.2-0.1,0.5-0.3,0.6l-7,7l-1.3-1.3L1162.4,30.5z"
	/>
<path class="st0" d="M1202.6,31.4h-31.8v-1.8h31.8V31.4z"/>
<path class="st0" d="M1201,30.5l-6.4-6.4l1.3-1.3l7,7c0.3,0.4,0.3,0.9,0,1.3l-7,7l-1.3-1.3L1201,30.5z"/>
<path class="st0" d="M1007.6,31.4h-31.8v-1.8h31.8V31.4z"/>
<path class="st0" d="M1006.1,30.5l-6.4-6.4l1.3-1.3l7,7c0.2,0.2,0.3,0.4,0.3,0.6c0,0.2-0.1,0.5-0.3,0.6l-7,7l-1.3-1.3L1006.1,30.5z"
	/>
<path class="st0" d="M1046.2,31.4h-31.7v-1.8h31.7V31.4z"/>
<path class="st0" d="M1044.7,30.5l-6.4-6.4l1.3-1.3l7,7c0.4,0.4,0.4,0.9,0,1.3l-7,7l-1.3-1.3L1044.7,30.5z"/>
<path class="st0" d="M1125.4,54.8h-31.8V53h31.8V54.8z"/>
<path class="st0" d="M1123.8,53.9l-6.4-6.4l1.3-1.3l7,7c0.3,0.4,0.3,0.9,0,1.3l-7,7l-1.3-1.3L1123.8,53.9z"/>
<path class="st0" d="M1164,54.8h-31.8V53h31.8V54.8z"/>
<path class="st0" d="M1162.4,53.9l-6.4-6.4l1.3-1.3l7,7c0.2,0.2,0.3,0.4,0.3,0.6c0,0.2-0.1,0.5-0.3,0.6l-7,7l-1.3-1.3L1162.4,53.9z"
	/>
<path class="st0" d="M1202.6,54.8h-31.8V53h31.8V54.8z"/>
<path class="st0" d="M1201,53.9l-6.4-6.4l1.3-1.3l7,7c0.3,0.4,0.3,0.9,0,1.3l-7,7l-1.3-1.3L1201,53.9z"/>
<path class="st0" d="M1007.6,54.8h-31.8V53h31.8V54.8z"/>
<path class="st0" d="M1006.1,53.9l-6.4-6.4l1.3-1.3l7,7c0.2,0.2,0.3,0.4,0.3,0.6c0,0.2-0.1,0.5-0.3,0.6l-7,7l-1.3-1.3L1006.1,53.9z"
	/>
<path class="st0" d="M1046.2,54.8h-31.7V53h31.7V54.8z"/>
<path class="st0" d="M1044.7,53.9l-6.4-6.4l1.3-1.3l7,7c0.4,0.4,0.4,0.9,0,1.3l-7,7l-1.3-1.3L1044.7,53.9z"/>
<path class="st0" d="M1125.4,78.3h-31.8v-1.8h31.8V78.3z"/>
<path class="st0" d="M1125.4,101.8h-31.8V100h31.8V101.8z"/>
<path class="st0" d="M1123.8,77.4l-6.4-6.4l1.3-1.3l7,7c0.3,0.4,0.3,0.9,0,1.3l-7,7l-1.3-1.3L1123.8,77.4z"/>
<path class="st0" d="M1123.8,100.9l-6.4-6.4l1.3-1.3l7,7c0.3,0.3,0.3,0.9,0,1.3l-7,7l-1.3-1.3L1123.8,100.9z"/>
<path class="st0" d="M1164,78.3h-31.8v-1.8h31.8V78.3z"/>
<path class="st0" d="M1164,101.8h-31.8V100h31.8V101.8z"/>
<path class="st0" d="M1162.4,77.4l-6.4-6.4l1.3-1.3l7,7c0.2,0.2,0.3,0.4,0.3,0.6c0,0.2-0.1,0.5-0.3,0.6l-7,7l-1.3-1.3L1162.4,77.4z"
	/>
<path class="st0" d="M1162.4,100.9l-6.4-6.4l1.3-1.3l7,7c0.2,0.2,0.3,0.4,0.3,0.6c0,0.2-0.1,0.5-0.3,0.6l-7,7l-1.3-1.3L1162.4,100.9
	z"/>
<path class="st0" d="M1202.6,78.3h-31.8v-1.8h31.8V78.3z"/>
<path class="st0" d="M1202.6,101.8h-31.8V100h31.8V101.8z"/>
<path class="st0" d="M1201,77.4l-6.4-6.4l1.3-1.3l7,7c0.3,0.4,0.3,0.9,0,1.3l-7,7l-1.3-1.3L1201,77.4z"/>
<path class="st0" d="M1201,100.9l-6.4-6.4l1.3-1.3l7,7c0.3,0.3,0.3,0.9,0,1.3l-7,7l-1.3-1.3L1201,100.9z"/>
<path class="st0" d="M1007.6,78.3h-31.8v-1.8h31.8V78.3z"/>
<path class="st0" d="M1007.6,101.8h-31.8V100h31.8V101.8z"/>
<path class="st0" d="M1006.1,77.4l-6.4-6.4l1.3-1.3l7,7c0.2,0.2,0.3,0.4,0.3,0.6c0,0.2-0.1,0.5-0.3,0.6l-7,7l-1.3-1.3L1006.1,77.4z"
	/>
<path class="st0" d="M1006.1,100.9l-6.4-6.4l1.3-1.3l7,7c0.2,0.2,0.3,0.4,0.3,0.6c0,0.2-0.1,0.5-0.3,0.6l-7,7l-1.3-1.3L1006.1,100.9
	z"/>
<path class="st0" d="M1046.2,78.3h-31.7v-1.8h31.7V78.3z"/>
<path class="st0" d="M1046.2,101.8h-31.7V100h31.7V101.8z"/>
<path class="st0" d="M1044.7,77.4l-6.4-6.4l1.3-1.3l7,7c0.4,0.4,0.4,0.9,0,1.3l-7,7l-1.3-1.3L1044.7,77.4z"/>
<path class="st0" d="M1044.7,100.9l-6.4-6.4l1.3-1.3l7,7c0.4,0.3,0.4,0.9,0,1.3l-7,7l-1.3-1.3L1044.7,100.9z"/>
<path class="st0" d="M1085.6,9.2h-31.8V7.4h31.8V9.2z"/>
<path class="st0" d="M1084.1,8.3l-6.4-6.4l1.3-1.3l7,7c0.3,0.4,0.3,0.9,0,1.3l-7,7l-1.3-1.3L1084.1,8.3z"/>
<path class="st0" d="M1085.6,32h-31.8v-1.8h31.8V32z"/>
<path class="st0" d="M1084.1,31.2l-6.4-6.4l1.3-1.3l7,7c0.3,0.4,0.3,0.9,0,1.3l-7,7l-1.3-1.3L1084.1,31.2z"/>
<path class="st0" d="M1085.6,55.5h-31.8v-1.8h31.8V55.5z"/>
<path class="st0" d="M1084.1,54.6l-6.4-6.4l1.3-1.3l7,7c0.3,0.4,0.3,0.9,0,1.3l-7,7l-1.3-1.3L1084.1,54.6z"/>
<path class="st0" d="M1085.6,79h-31.8v-1.8h31.8V79z"/>
<path class="st0" d="M1085.6,102.4h-31.8v-1.8h31.8V102.4z"/>
<path class="st0" d="M1084.1,78.1l-6.4-6.4l1.3-1.3l7,7c0.3,0.4,0.3,0.9,0,1.3l-7,7l-1.3-1.3L1084.1,78.1z"/>
<path class="st0" d="M1084.1,101.5l-6.4-6.4l1.3-1.3l7,7c0.3,0.4,0.3,0.9,0,1.3l-7,7l-1.3-1.3L1084.1,101.5z"/>
<path class="st0" d="M1553.1,8.5h-31.8V6.8h31.8V8.5z"/>
<path class="st0" d="M1551.5,7.7l-6.4-6.4l1.3-1.3l7,7c0.3,0.4,0.3,0.9,0,1.3l-7,7l-1.3-1.3L1551.5,7.7z"/>
<path class="st0" d="M1281.4,8.5h-31.8V6.8h31.8V8.5z"/>
<path class="st0" d="M1279.9,7.7l-6.4-6.4l1.3-1.3l7,7c0.3,0.4,0.3,0.9,0,1.3l-7,7l-1.3-1.3L1279.9,7.7z"/>
<path class="st0" d="M1437.8,8.5H1406V6.8h31.8V8.5z"/>
<path class="st0" d="M1436.3,7.7l-6.4-6.4l1.3-1.3l7,7c0.3,0.4,0.3,0.9,0,1.3l-7,7l-1.3-1.3L1436.3,7.7z"/>
<path class="st0" d="M1476.4,8.5h-31.8V6.8h31.8V8.5z"/>
<path class="st0" d="M1474.8,7.7l-6.4-6.4l1.3-1.3l7,7c0.2,0.2,0.3,0.4,0.3,0.6c0,0.2-0.1,0.5-0.3,0.6l-7,7l-1.3-1.3L1474.8,7.7z"/>
<path class="st0" d="M1553.1,31.4h-31.8v-1.8h31.8V31.4z"/>
<path class="st0" d="M1551.5,30.5l-6.4-6.4l1.3-1.3l7,7c0.3,0.4,0.3,0.9,0,1.3l-7,7l-1.3-1.3L1551.5,30.5z"/>
<path class="st0" d="M1281.4,31.4h-31.8v-1.8h31.8V31.4z"/>
<path class="st0" d="M1279.9,30.5l-6.4-6.4l1.3-1.3l7,7c0.4,0.4,0.3,0.9,0,1.3l-7,7l-1.3-1.3L1279.9,30.5z"/>
<path class="st0" d="M1515,8.5h-31.8V6.8h31.8V8.5z"/>
<path class="st0" d="M1513.4,7.7l-6.4-6.4l1.3-1.3l7,7c0.3,0.4,0.3,0.9,0,1.3l-7,7l-1.3-1.3L1513.4,7.7z"/>
<path class="st0" d="M1320,8.5h-31.8V6.8h31.8V8.5z"/>
<path class="st0" d="M1318.5,7.7l-6.4-6.4l1.3-1.3l7,7c0.3,0.4,0.3,0.9,0,1.3l-7,7l-1.3-1.3L1318.5,7.7z"/>
<path class="st0" d="M1553.1,54.8h-31.8V53h31.8V54.8z"/>
<path class="st0" d="M1551.5,53.9l-6.4-6.4l1.3-1.3l7,7c0.3,0.4,0.3,0.9,0,1.3l-7,7l-1.3-1.3L1551.5,53.9z"/>
<path class="st0" d="M1281.4,54.8h-31.8V53h31.8V54.8z"/>
<path class="st0" d="M1279.9,53.9l-6.4-6.4l1.3-1.3l7,7c0.3,0.4,0.4,0.9,0,1.3l-7,7l-1.3-1.3L1279.9,53.9z"/>
<path class="st0" d="M1358.6,8.5h-31.8V6.8h31.8V8.5z"/>
<path class="st0" d="M1357.1,7.7l-6.4-6.4L1352,0l7,7c0.3,0.4,0.3,0.9,0,1.3l-7,7l-1.3-1.3L1357.1,7.7z"/>
<path class="st0" d="M1437.8,31.4H1406v-1.8h31.8V31.4z"/>
<path class="st0" d="M1436.2,30.5l-6.4-6.4l1.3-1.3l7,7c0.3,0.4,0.3,0.9,0,1.3l-7,7l-1.3-1.3L1436.2,30.5z"/>
<path class="st0" d="M1553.1,78.3h-31.8v-1.8h31.8V78.3z"/>
<path class="st0" d="M1553.1,101.8h-31.8V100h31.8V101.8z"/>
<path class="st0" d="M1551.5,77.4l-6.4-6.4l1.3-1.3l7,7c0.3,0.4,0.3,0.9,0,1.3l-7,7l-1.3-1.3L1551.5,77.4z"/>
<path class="st0" d="M1551.5,100.9l-6.4-6.4l1.3-1.3l7,7c0.3,0.3,0.3,0.9,0,1.3l-7,7l-1.3-1.3L1551.5,100.9z"/>
<path class="st0" d="M1281.4,78.3h-31.8v-1.8h31.8V78.3z"/>
<path class="st0" d="M1281.4,101.8h-31.8V100h31.8V101.8z"/>
<path class="st0" d="M1279.9,77.4l-6.4-6.4l1.3-1.3l7,7c0.3,0.4,0.4,0.9,0,1.3l-7,7l-1.3-1.3L1279.9,77.4z"/>
<path class="st0" d="M1279.9,100.9l-6.4-6.4l1.3-1.3l7,7c0.3,0.3,0.4,0.9,0,1.3l-7,7l-1.3-1.3L1279.9,100.9z"/>
<path class="st0" d="M1476.4,31.4h-31.8v-1.8h31.8V31.4z"/>
<path class="st0" d="M1474.8,30.5l-6.4-6.4l1.3-1.3l7,7c0.2,0.2,0.3,0.4,0.3,0.6c0,0.2-0.1,0.5-0.3,0.6l-7,7l-1.3-1.3L1474.8,30.5z"
	/>
<path class="st0" d="M1515,31.4h-31.8v-1.8h31.8V31.4z"/>
<path class="st0" d="M1513.4,30.5l-6.4-6.4l1.3-1.3l7,7c0.3,0.4,0.3,0.9,0,1.3l-7,7l-1.3-1.3L1513.4,30.5z"/>
<path class="st0" d="M1320,31.4h-31.8v-1.8h31.8V31.4z"/>
<path class="st0" d="M1318.5,30.5l-6.4-6.4l1.3-1.3l7,7c0.2,0.2,0.3,0.4,0.3,0.6c0,0.2-0.1,0.5-0.3,0.6l-7,7l-1.3-1.3L1318.5,30.5z"
	/>
<path class="st0" d="M1358.6,31.4h-31.8v-1.8h31.8V31.4z"/>
<path class="st0" d="M1357.1,30.5l-6.4-6.4l1.3-1.3l7,7c0.3,0.4,0.3,0.9,0,1.3l-7,7l-1.3-1.3L1357.1,30.5z"/>
<path class="st0" d="M1437.8,54.8H1406V53h31.8V54.8z"/>
<path class="st0" d="M1436.2,53.9l-6.4-6.4l1.3-1.3l7,7c0.3,0.4,0.3,0.9,0,1.3l-7,7l-1.3-1.3L1436.2,53.9z"/>
<path class="st0" d="M1476.4,54.8h-31.8V53h31.8V54.8z"/>
<path class="st0" d="M1474.8,53.9l-6.4-6.4l1.3-1.3l7,7c0.2,0.2,0.3,0.4,0.3,0.6c0,0.2-0.1,0.5-0.3,0.6l-7,7l-1.3-1.3L1474.8,53.9z"
	/>
<path class="st0" d="M1515,54.8h-31.8V53h31.8V54.8z"/>
<path class="st0" d="M1513.4,53.9l-6.4-6.4l1.3-1.3l7,7c0.3,0.4,0.3,0.9,0,1.3l-7,7l-1.3-1.3L1513.4,53.9z"/>
<path class="st0" d="M1320,54.8h-31.8V53h31.8V54.8z"/>
<path class="st0" d="M1318.5,53.9l-6.4-6.4l1.3-1.3l7,7c0.2,0.2,0.3,0.4,0.3,0.6c0,0.2-0.1,0.5-0.3,0.6l-7,7l-1.3-1.3L1318.5,53.9z"
	/>
<path class="st0" d="M1358.6,54.8h-31.8V53h31.8V54.8z"/>
<path class="st0" d="M1357.1,53.9l-6.4-6.4l1.3-1.3l7,7c0.3,0.4,0.3,0.9,0,1.3l-7,7l-1.3-1.3L1357.1,53.9z"/>
<path class="st0" d="M1437.8,78.3H1406v-1.8h31.8V78.3z"/>
<path class="st0" d="M1437.8,101.8H1406V100h31.8V101.8z"/>
<path class="st0" d="M1436.2,77.4l-6.4-6.4l1.3-1.3l7,7c0.3,0.4,0.3,0.9,0,1.3l-7,7l-1.3-1.3L1436.2,77.4z"/>
<path class="st0" d="M1436.2,100.9l-6.4-6.4l1.3-1.3l7,7c0.3,0.3,0.3,0.9,0,1.3l-7,7l-1.3-1.3L1436.2,100.9z"/>
<path class="st0" d="M1476.4,78.3h-31.8v-1.8h31.8V78.3z"/>
<path class="st0" d="M1476.4,101.8h-31.8V100h31.8V101.8z"/>
<path class="st0" d="M1474.8,77.4l-6.4-6.4l1.3-1.3l7,7c0.2,0.2,0.3,0.4,0.3,0.6c0,0.2-0.1,0.5-0.3,0.6l-7,7l-1.3-1.3L1474.8,77.4z"
	/>
<path class="st0" d="M1474.8,100.9l-6.4-6.4l1.3-1.3l7,7c0.2,0.2,0.3,0.4,0.3,0.6c0,0.2-0.1,0.5-0.3,0.6l-7,7l-1.3-1.3L1474.8,100.9
	z"/>
<path class="st0" d="M1515,78.3h-31.8v-1.8h31.8V78.3z"/>
<path class="st0" d="M1515,101.8h-31.8V100h31.8V101.8z"/>
<path class="st0" d="M1513.4,77.4l-6.4-6.4l1.3-1.3l7,7c0.3,0.4,0.3,0.9,0,1.3l-7,7l-1.3-1.3L1513.4,77.4z"/>
<path class="st0" d="M1513.4,100.9l-6.4-6.4l1.3-1.3l7,7c0.3,0.3,0.3,0.9,0,1.3l-7,7l-1.3-1.3L1513.4,100.9z"/>
<path class="st0" d="M1320,78.3h-31.8v-1.8h31.8V78.3z"/>
<path class="st0" d="M1320,101.8h-31.8V100h31.8V101.8z"/>
<path class="st0" d="M1318.5,77.4l-6.4-6.4l1.3-1.3l7,7c0.2,0.2,0.3,0.4,0.3,0.6c0,0.2-0.1,0.5-0.3,0.6l-7,7l-1.3-1.3L1318.5,77.4z"
	/>
<path class="st0" d="M1318.5,100.9l-6.4-6.4l1.3-1.3l7,7c0.2,0.2,0.3,0.4,0.3,0.6c0,0.2-0.1,0.5-0.3,0.6l-7,7l-1.3-1.3L1318.5,100.9
	z"/>
<path class="st0" d="M1358.6,78.3h-31.8v-1.8h31.8V78.3z"/>
<path class="st0" d="M1358.6,101.8h-31.8V100h31.8V101.8z"/>
<path class="st0" d="M1357.1,77.4l-6.4-6.4l1.3-1.3l7,7c0.3,0.4,0.3,0.9,0,1.3l-7,7l-1.3-1.3L1357.1,77.4z"/>
<path class="st0" d="M1357.1,100.9l-6.4-6.4l1.3-1.3l7,7c0.3,0.3,0.3,0.9,0,1.3l-7,7l-1.3-1.3L1357.1,100.9z"/>
<path class="st0" d="M1398,9.2h-31.8V7.4h31.8V9.2z"/>
<path class="st0" d="M1396.5,8.3l-6.4-6.4l1.3-1.3l7,7c0.3,0.4,0.3,0.9,0,1.3l-7,7l-1.3-1.3L1396.5,8.3z"/>
<path class="st0" d="M1398,32h-31.8v-1.8h31.8V32z"/>
<path class="st0" d="M1396.5,31.2l-6.4-6.4l1.3-1.3l7,7c0.3,0.4,0.3,0.9,0,1.3l-7,7l-1.3-1.3L1396.5,31.2z"/>
<path class="st0" d="M1398,55.5h-31.8v-1.8h31.8V55.5z"/>
<path class="st0" d="M1396.5,54.6l-6.4-6.4l1.3-1.3l7,7c0.3,0.4,0.3,0.9,0,1.3l-7,7l-1.3-1.3L1396.5,54.6z"/>
<path class="st0" d="M1398,79h-31.8v-1.8h31.8V79z"/>
<path class="st0" d="M1398,102.4h-31.8v-1.8h31.8V102.4z"/>
<path class="st0" d="M1396.5,78.1l-6.4-6.4l1.3-1.3l7,7c0.3,0.4,0.3,0.9,0,1.3l-7,7l-1.3-1.3L1396.5,78.1z"/>
<path class="st0" d="M1396.5,101.5l-6.4-6.4l1.3-1.3l7,7c0.3,0.4,0.3,0.9,0,1.3l-7,7l-1.3-1.3L1396.5,101.5z"/>
</svg>
