<?xml version="1.0" encoding="utf-8"?>
<!-- Generator: Adobe Illustrator 26.5.0, SVG Export Plug-In . SVG Version: 6.00 Build 0)  -->
<svg version="1.1" id="Layer_1" xmlns="http://www.w3.org/2000/svg" xmlns:xlink="http://www.w3.org/1999/xlink" x="0px" y="0px"
	 viewBox="0 0 300 70" style="enable-background:new 0 0 300 70;" xml:space="preserve">
<style type="text/css">
	.st0{fill:#EDEDED;}
</style>
<path class="st0" d="M5.9,1.2c0.9,0,1.8,0.3,2.6,0.8c0.8,0.5,1.4,1.2,1.7,2.1c0.4,0.9,0.4,1.8,0.3,2.7c-0.2,0.9-0.6,1.7-1.3,2.4
	s-1.5,1.1-2.4,1.3c-0.9,0.2-1.9,0.1-2.7-0.3C3.2,9.9,2.5,9.3,2,8.5C1.5,7.7,1.2,6.8,1.2,5.9c0-1.2,0.5-2.4,1.4-3.3
	C3.5,1.7,4.6,1.2,5.9,1.2z M5.9,0C4.7,0,3.6,0.3,2.6,1c-1,0.6-1.7,1.6-2.2,2.6C0,4.7-0.1,5.9,0.1,7c0.2,1.1,0.8,2.2,1.6,3
	c0.8,0.8,1.9,1.4,3,1.6c1.1,0.2,2.3,0.1,3.4-0.3s2-1.2,2.6-2.2c0.6-1,1-2.1,1-3.3c0-0.8-0.2-1.5-0.4-2.3c-0.3-0.7-0.7-1.4-1.3-1.9
	c-0.5-0.5-1.2-1-1.9-1.3C7.4,0.2,6.7,0,5.9,0z"/>
<path class="st0" d="M20.8,2.4c0.7,0,1.4,0.2,2,0.6s1,0.9,1.3,1.6c0.3,0.6,0.3,1.3,0.2,2c-0.1,0.7-0.5,1.3-1,1.8
	c-0.5,0.5-1.1,0.8-1.8,1c-0.7,0.1-1.4,0.1-2.1-0.2c-0.7-0.3-1.2-0.7-1.6-1.3c-0.4-0.6-0.6-1.2-0.6-1.9c0-0.9,0.4-1.8,1.1-2.5
	C18.9,2.8,19.8,2.4,20.8,2.4z M20.8,0c-1.2,0-2.4,0.3-3.4,1c-1,0.6-1.8,1.6-2.2,2.6c-0.5,1.1-0.6,2.3-0.3,3.4c0.2,1.1,0.8,2.2,1.7,3
	c0.8,0.8,1.9,1.4,3.1,1.6c1.2,0.2,2.4,0.1,3.5-0.3c1.1-0.4,2.1-1.2,2.7-2.2c0.7-1,1-2.1,1-3.3c0-0.8-0.2-1.5-0.5-2.3
	c-0.3-0.7-0.7-1.4-1.3-1.9c-0.6-0.5-1.2-1-2-1.3S21.6,0,20.8,0z"/>
<path class="st0" d="M36,3.6c0.5,0,0.9,0.1,1.3,0.4s0.7,0.6,0.8,1c0.2,0.4,0.2,0.9,0.1,1.3c-0.1,0.4-0.3,0.9-0.6,1.2
	S36.9,8,36.4,8.1c-0.4,0.1-0.9,0-1.3-0.1c-0.4-0.2-0.8-0.5-1-0.8c-0.3-0.4-0.4-0.8-0.4-1.3c0-0.6,0.2-1.2,0.7-1.6S35.4,3.6,36,3.6z
	 M36,0c-1.2,0-2.3,0.3-3.3,1c-1,0.6-1.7,1.6-2.2,2.6C30.1,4.7,30,5.9,30.2,7c0.2,1.1,0.8,2.2,1.6,3c0.8,0.8,1.9,1.4,3,1.6
	c1.1,0.2,2.3,0.1,3.4-0.3c1.1-0.4,2-1.2,2.6-2.2c0.6-1,1-2.1,1-3.3c0-0.8-0.2-1.5-0.4-2.3c-0.3-0.7-0.7-1.4-1.3-1.9
	c-0.5-0.5-1.2-1-1.9-1.3C37.5,0.2,36.8,0,36,0z"/>
<path class="st0" d="M50.9,4.8c0.2,0,0.4,0.1,0.6,0.2c0.2,0.1,0.3,0.3,0.4,0.5C52,5.7,52,5.9,52,6.1c0,0.2-0.1,0.4-0.3,0.6
	c-0.2,0.2-0.4,0.3-0.6,0.3c-0.2,0-0.4,0-0.6-0.1c-0.2-0.1-0.4-0.2-0.5-0.4c-0.1-0.2-0.2-0.4-0.2-0.6c0-0.3,0.1-0.6,0.3-0.8
	C50.3,4.9,50.6,4.8,50.9,4.8z M50.9,0c-1.2,0-2.4,0.3-3.4,1c-1,0.6-1.8,1.6-2.2,2.6c-0.5,1.1-0.6,2.3-0.3,3.4c0.2,1.1,0.8,2.2,1.7,3
	c0.8,0.8,1.9,1.4,3.1,1.6c1.2,0.2,2.4,0.1,3.5-0.3s2.1-1.2,2.7-2.2c0.7-1,1-2.1,1-3.3c0-1.6-0.6-3.1-1.8-4.2C54,0.6,52.5,0,50.9,0z"
	/>
<path class="st0" d="M65.7,11.8c3.3,0,5.9-2.6,5.9-5.9S69,0,65.7,0c-3.3,0-5.9,2.6-5.9,5.9S62.5,11.8,65.7,11.8z"/>
<path class="st0" d="M65.7,15.6c0.9,0,1.8,0.3,2.6,0.8c0.8,0.5,1.4,1.3,1.7,2.2c0.4,0.9,0.4,1.8,0.3,2.8c-0.2,0.9-0.6,1.8-1.3,2.5
	c-0.7,0.7-1.5,1.1-2.4,1.3c-0.9,0.2-1.9,0.1-2.7-0.3s-1.6-1-2.1-1.8c-0.5-0.8-0.8-1.7-0.8-2.7c0-1.3,0.5-2.5,1.4-3.4
	C63.3,16.1,64.5,15.6,65.7,15.6z M65.7,14.4c-1.2,0-2.3,0.4-3.3,1c-1,0.7-1.7,1.6-2.2,2.7c-0.4,1.1-0.6,2.3-0.3,3.5
	c0.2,1.2,0.8,2.3,1.6,3.1c0.8,0.8,1.9,1.4,3,1.7c1.1,0.2,2.3,0.1,3.4-0.3c1.1-0.5,2-1.2,2.6-2.2c0.6-1,1-2.2,1-3.4
	c0-0.8-0.2-1.6-0.4-2.3c-0.3-0.7-0.7-1.4-1.3-2c-0.5-0.6-1.2-1-1.9-1.3C67.3,14.5,66.5,14.4,65.7,14.4z"/>
<path class="st0" d="M50.9,16.9c0.7,0,1.4,0.2,2,0.6c0.6,0.4,1,1,1.3,1.6c0.3,0.7,0.3,1.4,0.2,2.1c-0.1,0.7-0.5,1.3-1,1.8
	c-0.5,0.5-1.1,0.8-1.8,1c-0.7,0.1-1.4,0.1-2.1-0.2c-0.7-0.3-1.2-0.7-1.6-1.3c-0.4-0.6-0.6-1.3-0.6-2c0-0.9,0.4-1.9,1.1-2.5
	C49,17.2,49.9,16.9,50.9,16.9z M50.9,14.4c-1.2,0-2.4,0.4-3.4,1c-1,0.7-1.8,1.6-2.2,2.7c-0.5,1.1-0.6,2.3-0.3,3.5
	c0.2,1.2,0.8,2.3,1.7,3.1c0.8,0.8,1.9,1.4,3.1,1.7c1.2,0.2,2.4,0.1,3.5-0.3c1.1-0.5,2.1-1.2,2.7-2.2c0.7-1,1-2.2,1-3.4
	c0-1.6-0.6-3.1-1.8-4.3C54,15,52.5,14.4,50.9,14.4z"/>
<path class="st0" d="M36,18.1c0.5,0,0.9,0.1,1.3,0.4c0.4,0.3,0.7,0.6,0.8,1.1c0.2,0.4,0.2,0.9,0.1,1.4c-0.1,0.5-0.3,0.9-0.6,1.2
	c-0.3,0.3-0.7,0.6-1.2,0.6c-0.4,0.1-0.9,0-1.3-0.1c-0.4-0.2-0.8-0.5-1-0.9c-0.3-0.4-0.4-0.8-0.4-1.3c0-0.6,0.2-1.2,0.7-1.7
	S35.4,18.1,36,18.1z M36,14.4c-1.2,0-2.3,0.4-3.3,1c-1,0.7-1.7,1.6-2.2,2.7c-0.4,1.1-0.6,2.3-0.3,3.5c0.2,1.2,0.8,2.3,1.6,3.1
	c0.8,0.8,1.9,1.4,3,1.7c1.1,0.2,2.3,0.1,3.4-0.3c1.1-0.5,2-1.2,2.6-2.2c0.6-1,1-2.2,1-3.4c0-1.6-0.6-3.1-1.7-4.3
	C39,15,37.5,14.4,36,14.4z"/>
<path class="st0" d="M20.8,19.3c0.2,0,0.4,0.1,0.6,0.2c0.2,0.1,0.3,0.3,0.4,0.5c0.1,0.2,0.1,0.4,0.1,0.6c0,0.2-0.1,0.4-0.3,0.6
	c-0.2,0.2-0.4,0.3-0.6,0.3c-0.2,0-0.4,0-0.6-0.1c-0.2-0.1-0.4-0.2-0.5-0.4c-0.1-0.2-0.2-0.4-0.2-0.6c0-0.3,0.1-0.6,0.3-0.8
	C20.2,19.4,20.5,19.3,20.8,19.3z M20.8,14.4c-1.2,0-2.4,0.4-3.4,1c-1,0.7-1.8,1.6-2.2,2.7c-0.5,1.1-0.6,2.3-0.3,3.5
	c0.2,1.2,0.8,2.3,1.7,3.1c0.8,0.8,1.9,1.4,3.1,1.7c1.2,0.2,2.4,0.1,3.5-0.3c1.1-0.5,2.1-1.2,2.7-2.2c0.7-1,1-2.2,1-3.4
	c0-0.8-0.2-1.6-0.5-2.3c-0.3-0.7-0.7-1.4-1.3-2c-0.6-0.6-1.2-1-2-1.3S21.6,14.4,20.8,14.4z"/>
<path class="st0" d="M5.9,26.5c3.3,0,5.9-2.7,5.9-6.1s-2.6-6.1-5.9-6.1S0,17.1,0,20.4S2.6,26.5,5.9,26.5z"/>
<path class="st0" d="M5.9,30.3c0.9,0,1.8,0.3,2.6,0.8c0.8,0.5,1.4,1.2,1.7,2.1c0.4,0.9,0.4,1.8,0.3,2.7c-0.2,0.9-0.6,1.7-1.3,2.4
	c-0.7,0.7-1.5,1.1-2.4,1.3c-0.9,0.2-1.9,0.1-2.7-0.3c-0.9-0.4-1.6-1-2.1-1.7c-0.5-0.8-0.8-1.7-0.8-2.6c0-1.2,0.5-2.4,1.4-3.3
	C3.5,30.8,4.6,30.3,5.9,30.3z M5.9,29.1c-1.2,0-2.3,0.3-3.3,1c-1,0.6-1.7,1.6-2.2,2.6C0,33.8-0.1,35,0.1,36.1c0.2,1.1,0.8,2.2,1.6,3
	c0.8,0.8,1.9,1.4,3,1.6c1.1,0.2,2.3,0.1,3.4-0.3s2-1.2,2.6-2.2c0.6-1,1-2.1,1-3.3c0-0.8-0.2-1.5-0.4-2.3c-0.3-0.7-0.7-1.4-1.3-1.9
	c-0.5-0.5-1.2-1-1.9-1.3C7.4,29.3,6.7,29.1,5.9,29.1z"/>
<path class="st0" d="M20.8,31.5c0.7,0,1.4,0.2,2,0.6c0.6,0.4,1,0.9,1.3,1.6c0.3,0.6,0.3,1.3,0.2,2c-0.1,0.7-0.5,1.3-1,1.8
	c-0.5,0.5-1.1,0.8-1.8,1s-1.4,0.1-2.1-0.2c-0.7-0.3-1.2-0.7-1.6-1.3s-0.6-1.2-0.6-1.9c0-0.9,0.4-1.8,1.1-2.5
	C18.9,31.9,19.8,31.5,20.8,31.5z M20.8,29.1c-1.2,0-2.4,0.3-3.4,1c-1,0.6-1.8,1.6-2.2,2.6c-0.5,1.1-0.6,2.3-0.3,3.4
	c0.2,1.1,0.8,2.2,1.7,3c0.8,0.8,1.9,1.4,3.1,1.6c1.2,0.2,2.4,0.1,3.5-0.3c1.1-0.4,2.1-1.2,2.7-2.2c0.7-1,1-2.1,1-3.3
	c0-0.8-0.2-1.5-0.5-2.3c-0.3-0.7-0.7-1.4-1.3-1.9c-0.6-0.5-1.2-1-2-1.3C22.4,29.3,21.6,29.1,20.8,29.1z"/>
<path class="st0" d="M36,32.7c0.5,0,0.9,0.1,1.3,0.4c0.4,0.3,0.7,0.6,0.8,1c0.2,0.4,0.2,0.9,0.1,1.3c-0.1,0.4-0.3,0.9-0.6,1.2
	c-0.3,0.3-0.7,0.5-1.2,0.6c-0.4,0.1-0.9,0-1.3-0.1c-0.4-0.2-0.8-0.5-1-0.8c-0.3-0.4-0.4-0.8-0.4-1.3c0-0.6,0.2-1.2,0.7-1.6
	S35.4,32.7,36,32.7z M36,29.1c-1.2,0-2.3,0.3-3.3,1c-1,0.6-1.7,1.6-2.2,2.6c-0.4,1.1-0.6,2.3-0.3,3.4c0.2,1.1,0.8,2.2,1.6,3
	c0.8,0.8,1.9,1.4,3,1.6s2.3,0.1,3.4-0.3c1.1-0.4,2-1.2,2.6-2.2c0.6-1,1-2.1,1-3.3c0-1.6-0.6-3.1-1.7-4.2C39,29.7,37.5,29.1,36,29.1z
	"/>
<path class="st0" d="M50.9,33.9c0.2,0,0.4,0.1,0.6,0.2c0.2,0.1,0.3,0.3,0.4,0.5C52,34.8,52,35,52,35.2c0,0.2-0.1,0.4-0.3,0.6
	c-0.2,0.2-0.4,0.3-0.6,0.3c-0.2,0-0.4,0-0.6-0.1c-0.2-0.1-0.4-0.2-0.5-0.4c-0.1-0.2-0.2-0.4-0.2-0.6c0-0.3,0.1-0.6,0.3-0.8
	C50.3,34,50.6,33.9,50.9,33.9z M50.9,29.1c-1.2,0-2.4,0.3-3.4,1c-1,0.6-1.8,1.6-2.2,2.6c-0.5,1.1-0.6,2.3-0.3,3.4
	c0.2,1.1,0.8,2.2,1.7,3c0.8,0.8,1.9,1.4,3.1,1.6s2.4,0.1,3.5-0.3s2.1-1.2,2.7-2.2c0.7-1,1-2.1,1-3.3c0-1.6-0.6-3.1-1.8-4.2
	C54,29.7,52.5,29.1,50.9,29.1z"/>
<path class="st0" d="M65.7,40.9c3.3,0,5.9-2.6,5.9-5.9s-2.6-5.9-5.9-5.9c-3.3,0-5.9,2.6-5.9,5.9S62.5,40.9,65.7,40.9z"/>
<path class="st0" d="M65.7,45c0.9,0,1.8,0.3,2.6,0.8s1.4,1.2,1.7,2c0.4,0.8,0.4,1.7,0.3,2.6c-0.2,0.9-0.6,1.7-1.3,2.3
	c-0.7,0.6-1.5,1.1-2.4,1.2c-0.9,0.2-1.9,0.1-2.7-0.3s-1.6-0.9-2.1-1.7c-0.5-0.7-0.8-1.6-0.8-2.5c0-1.2,0.5-2.4,1.4-3.2
	C63.3,45.5,64.5,45,65.7,45z M65.7,43.8c-1.2,0-2.3,0.3-3.3,1c-1,0.6-1.7,1.5-2.2,2.6c-0.4,1-0.6,2.2-0.3,3.3s0.8,2.1,1.6,2.9
	c0.8,0.8,1.9,1.3,3,1.6c1.1,0.2,2.3,0.1,3.4-0.3c1.1-0.4,2-1.2,2.6-2.1c0.6-0.9,1-2,1-3.2c0-0.8-0.2-1.5-0.4-2.2
	c-0.3-0.7-0.7-1.3-1.3-1.9s-1.2-1-1.9-1.2C67.3,44,66.5,43.8,65.7,43.8z"/>
<path class="st0" d="M50.9,46.2c0.7,0,1.4,0.2,2,0.6c0.6,0.4,1,0.9,1.3,1.5c0.3,0.6,0.3,1.3,0.2,2c-0.1,0.7-0.5,1.3-1,1.7
	c-0.5,0.5-1.1,0.8-1.8,0.9c-0.7,0.1-1.4,0.1-2.1-0.2c-0.7-0.3-1.2-0.7-1.6-1.2c-0.4-0.6-0.6-1.2-0.6-1.9c0-0.9,0.4-1.8,1.1-2.4
	C49,46.5,49.9,46.2,50.9,46.2z M50.9,43.8c-1.2,0-2.4,0.3-3.4,1c-1,0.6-1.8,1.5-2.2,2.6c-0.5,1-0.6,2.2-0.3,3.3
	c0.2,1.1,0.8,2.1,1.7,2.9c0.8,0.8,1.9,1.3,3.1,1.6c1.2,0.2,2.4,0.1,3.5-0.3c1.1-0.4,2.1-1.2,2.7-2.1c0.7-0.9,1-2,1-3.2
	c0-0.8-0.2-1.5-0.5-2.2c-0.3-0.7-0.7-1.3-1.3-1.9c-0.6-0.5-1.2-1-2-1.2C52.4,44,51.7,43.8,50.9,43.8z"/>
<path class="st0" d="M36,47.3c0.5,0,0.9,0.1,1.3,0.4c0.4,0.2,0.7,0.6,0.8,1c0.2,0.4,0.2,0.9,0.1,1.3c-0.1,0.4-0.3,0.8-0.6,1.1
	c-0.3,0.3-0.7,0.5-1.2,0.6c-0.4,0.1-0.9,0-1.3-0.1c-0.4-0.2-0.8-0.5-1-0.8c-0.3-0.4-0.4-0.8-0.4-1.2c0-0.6,0.2-1.2,0.7-1.6
	C34.8,47.6,35.4,47.3,36,47.3z M36,43.8c-1.2,0-2.3,0.3-3.3,1c-1,0.6-1.7,1.5-2.2,2.6c-0.4,1-0.6,2.2-0.3,3.3
	c0.2,1.1,0.8,2.1,1.6,2.9c0.8,0.8,1.9,1.3,3,1.6c1.1,0.2,2.3,0.1,3.4-0.3s2-1.2,2.6-2.1c0.6-0.9,1-2,1-3.2c0-0.8-0.2-1.5-0.4-2.2
	c-0.3-0.7-0.7-1.3-1.3-1.9c-0.5-0.5-1.2-1-1.9-1.2C37.5,44,36.8,43.8,36,43.8z"/>
<path class="st0" d="M20.8,48.5c0.2,0,0.4,0.1,0.6,0.2c0.2,0.1,0.3,0.3,0.4,0.5c0.1,0.2,0.1,0.4,0.1,0.6s-0.1,0.4-0.3,0.5
	c-0.2,0.1-0.4,0.2-0.6,0.3c-0.2,0-0.4,0-0.6-0.1c-0.2-0.1-0.4-0.2-0.5-0.4c-0.1-0.2-0.2-0.4-0.2-0.6c0-0.3,0.1-0.5,0.3-0.7
	C20.2,48.6,20.5,48.5,20.8,48.5z M20.8,43.8c-1.2,0-2.4,0.3-3.4,1c-1,0.6-1.8,1.5-2.2,2.6c-0.5,1-0.6,2.2-0.3,3.3
	c0.2,1.1,0.8,2.1,1.7,2.9c0.8,0.8,1.9,1.3,3.1,1.6c1.2,0.2,2.4,0.1,3.5-0.3s2.1-1.2,2.7-2.1c0.7-0.9,1-2,1-3.2
	c0-0.8-0.2-1.5-0.5-2.2c-0.3-0.7-0.7-1.3-1.3-1.9c-0.6-0.5-1.2-1-2-1.2S21.6,43.8,20.8,43.8z"/>
<path class="st0" d="M5.9,55.3c3.3,0,5.9-2.6,5.9-5.7c0-3.2-2.6-5.7-5.9-5.7S0,46.4,0,49.6C0,52.7,2.6,55.3,5.9,55.3z"/>
<path class="st0" d="M5.9,59.4c0.9,0,1.8,0.3,2.6,0.8c0.8,0.5,1.4,1.2,1.7,2.1c0.4,0.9,0.4,1.8,0.3,2.7c-0.2,0.9-0.6,1.7-1.3,2.4
	c-0.7,0.7-1.5,1.1-2.4,1.3S5,68.8,4.1,68.4c-0.9-0.4-1.6-1-2.1-1.7S1.2,65,1.2,64.1c0-1.2,0.5-2.4,1.4-3.3
	C3.5,59.9,4.6,59.4,5.9,59.4z M5.9,58.2c-1.2,0-2.3,0.3-3.3,1c-1,0.6-1.7,1.6-2.2,2.6c-0.4,1.1-0.6,2.3-0.3,3.4
	c0.2,1.1,0.8,2.2,1.6,3c0.8,0.8,1.9,1.4,3,1.6c1.1,0.2,2.3,0.1,3.4-0.3c1.1-0.4,2-1.2,2.6-2.2c0.6-1,1-2.1,1-3.3
	c0-1.6-0.6-3.1-1.7-4.2C8.9,58.8,7.5,58.2,5.9,58.2z"/>
<path class="st0" d="M20.8,60.6c0.7,0,1.4,0.2,2,0.6c0.6,0.4,1,0.9,1.3,1.6c0.3,0.6,0.3,1.3,0.2,2c-0.1,0.7-0.5,1.3-1,1.8
	c-0.5,0.5-1.1,0.8-1.8,1c-0.7,0.1-1.4,0.1-2.1-0.2c-0.7-0.3-1.2-0.7-1.6-1.3c-0.4-0.6-0.6-1.2-0.6-1.9c0-0.9,0.4-1.8,1.1-2.5
	C18.9,61,19.8,60.6,20.8,60.6z M20.8,58.2c-1.2,0-2.4,0.3-3.4,1c-1,0.6-1.8,1.6-2.2,2.6c-0.5,1.1-0.6,2.3-0.3,3.4
	c0.2,1.1,0.8,2.2,1.7,3c0.8,0.8,1.9,1.4,3.1,1.6c1.2,0.2,2.4,0.1,3.5-0.3c1.1-0.4,2.1-1.2,2.7-2.2c0.7-1,1-2.1,1-3.3
	c0-1.6-0.6-3.1-1.8-4.2C23.9,58.8,22.4,58.2,20.8,58.2z"/>
<path class="st0" d="M36,61.8c0.5,0,0.9,0.1,1.3,0.4c0.4,0.3,0.7,0.6,0.8,1c0.2,0.4,0.2,0.9,0.1,1.3c-0.1,0.4-0.3,0.9-0.6,1.2
	c-0.3,0.3-0.7,0.5-1.2,0.6s-0.9,0-1.3-0.1c-0.4-0.2-0.8-0.5-1-0.8s-0.4-0.8-0.4-1.3c0-0.6,0.2-1.2,0.7-1.6
	C34.8,62.1,35.4,61.8,36,61.8z M36,58.2c-1.2,0-2.3,0.3-3.3,1c-1,0.6-1.7,1.6-2.2,2.6c-0.4,1.1-0.6,2.3-0.3,3.4
	c0.2,1.1,0.8,2.2,1.6,3c0.8,0.8,1.9,1.4,3,1.6c1.1,0.2,2.3,0.1,3.4-0.3c1.1-0.4,2-1.2,2.6-2.2c0.6-1,1-2.1,1-3.3
	c0-1.6-0.6-3.1-1.7-4.2C39,58.8,37.5,58.2,36,58.2z"/>
<path class="st0" d="M50.9,63c0.2,0,0.4,0.1,0.6,0.2c0.2,0.1,0.3,0.3,0.4,0.5c0.1,0.2,0.1,0.4,0.1,0.6c0,0.2-0.1,0.4-0.3,0.6
	c-0.2,0.2-0.4,0.3-0.6,0.3c-0.2,0-0.4,0-0.6-0.1c-0.2-0.1-0.4-0.2-0.5-0.4c-0.1-0.2-0.2-0.4-0.2-0.6c0-0.3,0.1-0.6,0.3-0.8
	C50.3,63.1,50.6,63,50.9,63z M50.9,58.2c-1.2,0-2.4,0.3-3.4,1c-1,0.6-1.8,1.6-2.2,2.6c-0.5,1.1-0.6,2.3-0.3,3.4
	c0.2,1.1,0.8,2.2,1.7,3c0.8,0.8,1.9,1.4,3.1,1.6c1.2,0.2,2.4,0.1,3.5-0.3c1.1-0.4,2.1-1.2,2.7-2.2s1-2.1,1-3.3
	c0-1.6-0.6-3.1-1.8-4.2C54,58.8,52.5,58.2,50.9,58.2z"/>
<path class="st0" d="M65.7,70c3.3,0,5.9-2.6,5.9-5.9c0-3.3-2.6-5.9-5.9-5.9c-3.3,0-5.9,2.6-5.9,5.9C59.9,67.4,62.5,70,65.7,70z"/>
<path class="st0" d="M81.8,1.2c0.9,0,1.8,0.3,2.6,0.8s1.4,1.2,1.7,2.1c0.4,0.9,0.4,1.8,0.3,2.7c-0.2,0.9-0.6,1.7-1.3,2.4
	c-0.7,0.7-1.5,1.1-2.4,1.3c-0.9,0.2-1.9,0.1-2.7-0.3c-0.9-0.4-1.6-1-2.1-1.7c-0.5-0.8-0.8-1.7-0.8-2.6c0-1.2,0.5-2.4,1.4-3.3
	C79.4,1.7,80.6,1.2,81.8,1.2z M81.8,0c-1.2,0-2.3,0.3-3.3,1c-1,0.6-1.7,1.6-2.2,2.6C75.9,4.7,75.8,5.9,76,7c0.2,1.1,0.8,2.2,1.6,3
	c0.8,0.8,1.9,1.4,3,1.6c1.1,0.2,2.3,0.1,3.4-0.3c1.1-0.4,2-1.2,2.6-2.2c0.6-1,1-2.1,1-3.3c0-0.8-0.2-1.5-0.4-2.3
	c-0.3-0.7-0.7-1.4-1.3-1.9c-0.5-0.5-1.2-1-1.9-1.3C83.3,0.2,82.6,0,81.8,0z"/>
<path class="st0" d="M96.7,2.4c0.7,0,1.4,0.2,2,0.6c0.6,0.4,1,0.9,1.3,1.6c0.3,0.6,0.3,1.3,0.2,2c-0.1,0.7-0.5,1.3-1,1.8
	c-0.5,0.5-1.1,0.8-1.8,1c-0.7,0.1-1.4,0.1-2.1-0.2c-0.7-0.3-1.2-0.7-1.6-1.3c-0.4-0.6-0.6-1.2-0.6-1.9c0-0.9,0.4-1.8,1.1-2.5
	C94.8,2.8,95.7,2.4,96.7,2.4z M96.7,0c-1.2,0-2.4,0.3-3.4,1c-1,0.6-1.8,1.6-2.2,2.6c-0.5,1.1-0.6,2.3-0.3,3.4s0.8,2.2,1.7,3
	c0.8,0.8,1.9,1.4,3.1,1.6c1.2,0.2,2.4,0.1,3.5-0.3c1.1-0.4,2.1-1.2,2.7-2.2c0.7-1,1-2.1,1-3.3c0-0.8-0.2-1.5-0.5-2.3
	c-0.3-0.7-0.8-1.4-1.3-1.9c-0.6-0.5-1.2-1-2-1.3S97.5,0,96.7,0z"/>
<path class="st0" d="M111.9,3.6c0.5,0,0.9,0.1,1.3,0.4c0.4,0.3,0.7,0.6,0.8,1c0.2,0.4,0.2,0.9,0.1,1.3c-0.1,0.4-0.3,0.9-0.6,1.2
	s-0.7,0.5-1.2,0.6s-0.9,0-1.3-0.1c-0.4-0.2-0.8-0.5-1-0.8c-0.3-0.4-0.4-0.8-0.4-1.3c0-0.6,0.2-1.2,0.7-1.6S111.3,3.6,111.9,3.6z
	 M111.9,0c-1.2,0-2.3,0.3-3.3,1c-1,0.6-1.7,1.6-2.2,2.6c-0.4,1.1-0.6,2.3-0.3,3.4c0.2,1.1,0.8,2.2,1.6,3c0.8,0.8,1.9,1.4,3,1.6
	c1.1,0.2,2.3,0.1,3.4-0.3c1.1-0.4,2-1.2,2.6-2.2c0.6-1,1-2.1,1-3.3c0-0.8-0.2-1.5-0.4-2.3c-0.3-0.7-0.7-1.4-1.3-1.9
	c-0.5-0.5-1.2-1-1.9-1.3C113.4,0.2,112.7,0,111.9,0z"/>
<path class="st0" d="M126.8,4.8c0.2,0,0.4,0.1,0.6,0.2c0.2,0.1,0.3,0.3,0.4,0.5c0.1,0.2,0.1,0.4,0.1,0.6s-0.1,0.4-0.3,0.6
	c-0.2,0.2-0.4,0.3-0.6,0.3c-0.2,0-0.4,0-0.6-0.1c-0.2-0.1-0.4-0.2-0.5-0.4c-0.1-0.2-0.2-0.4-0.2-0.6c0-0.3,0.1-0.6,0.3-0.8
	C126.2,4.9,126.5,4.8,126.8,4.8z M126.8,0c-1.2,0-2.4,0.3-3.4,1c-1,0.6-1.8,1.6-2.2,2.6c-0.5,1.1-0.6,2.3-0.3,3.4
	c0.2,1.1,0.8,2.2,1.7,3c0.8,0.8,1.9,1.4,3.1,1.6c1.2,0.2,2.4,0.1,3.5-0.3c1.1-0.4,2.1-1.2,2.7-2.2c0.7-1,1-2.1,1-3.3
	c0-1.6-0.6-3.1-1.8-4.2C129.9,0.6,128.4,0,126.8,0z"/>
<path class="st0" d="M141.7,11.8c3.3,0,5.9-2.6,5.9-5.9S144.9,0,141.7,0s-5.9,2.6-5.9,5.9S138.4,11.8,141.7,11.8z"/>
<path class="st0" d="M141.7,15.6c0.9,0,1.8,0.3,2.6,0.8c0.8,0.5,1.4,1.3,1.7,2.2c0.4,0.9,0.4,1.8,0.3,2.8s-0.6,1.8-1.3,2.5
	c-0.7,0.7-1.5,1.1-2.4,1.3c-0.9,0.2-1.9,0.1-2.7-0.3c-0.9-0.4-1.6-1-2.1-1.8c-0.5-0.8-0.8-1.7-0.8-2.7c0-1.3,0.5-2.5,1.4-3.4
	C139.2,16.1,140.4,15.6,141.7,15.6z M141.7,14.4c-1.2,0-2.3,0.4-3.3,1c-1,0.7-1.7,1.6-2.2,2.7c-0.4,1.1-0.6,2.3-0.3,3.5
	c0.2,1.2,0.8,2.3,1.6,3.1c0.8,0.8,1.9,1.4,3,1.7c1.1,0.2,2.3,0.1,3.4-0.3c1.1-0.5,2-1.2,2.6-2.2c0.6-1,1-2.2,1-3.4
	c0-0.8-0.2-1.6-0.4-2.3c-0.3-0.7-0.7-1.4-1.3-2c-0.5-0.6-1.2-1-1.9-1.3C143.2,14.5,142.4,14.4,141.7,14.4z"/>
<path class="st0" d="M126.8,16.9c0.7,0,1.4,0.2,2,0.6c0.6,0.4,1,1,1.3,1.6c0.3,0.7,0.3,1.4,0.2,2.1c-0.1,0.7-0.5,1.3-1,1.8
	c-0.5,0.5-1.1,0.8-1.8,1c-0.7,0.1-1.4,0.1-2.1-0.2c-0.7-0.3-1.2-0.7-1.6-1.3c-0.4-0.6-0.6-1.3-0.6-2c0-0.9,0.4-1.9,1.1-2.5
	C124.9,17.2,125.8,16.9,126.8,16.9z M126.8,14.4c-1.2,0-2.4,0.4-3.4,1c-1,0.7-1.8,1.6-2.2,2.7c-0.5,1.1-0.6,2.3-0.3,3.5
	c0.2,1.2,0.8,2.3,1.7,3.1c0.8,0.8,1.9,1.4,3.1,1.7c1.2,0.2,2.4,0.1,3.5-0.3c1.1-0.5,2.1-1.2,2.7-2.2s1-2.2,1-3.4
	c0-1.6-0.6-3.1-1.8-4.3C129.9,15,128.4,14.4,126.8,14.4z"/>
<path class="st0" d="M111.9,18.1c0.5,0,0.9,0.1,1.3,0.4c0.4,0.3,0.7,0.6,0.8,1.1c0.2,0.4,0.2,0.9,0.1,1.4c-0.1,0.5-0.3,0.9-0.6,1.2
	c-0.3,0.3-0.7,0.6-1.2,0.6c-0.4,0.1-0.9,0-1.3-0.1c-0.4-0.2-0.8-0.5-1-0.9c-0.3-0.4-0.4-0.8-0.4-1.3c0-0.6,0.2-1.2,0.7-1.7
	S111.3,18.1,111.9,18.1z M111.9,14.4c-1.2,0-2.3,0.4-3.3,1c-1,0.7-1.7,1.6-2.2,2.7c-0.4,1.1-0.6,2.3-0.3,3.5
	c0.2,1.2,0.8,2.3,1.6,3.1c0.8,0.8,1.9,1.4,3,1.7c1.1,0.2,2.3,0.1,3.4-0.3c1.1-0.5,2-1.2,2.6-2.2c0.6-1,1-2.2,1-3.4
	c0-1.6-0.6-3.1-1.7-4.3C115,15,113.5,14.4,111.9,14.4z"/>
<path class="st0" d="M96.7,19.3c0.2,0,0.4,0.1,0.6,0.2c0.2,0.1,0.3,0.3,0.4,0.5c0.1,0.2,0.1,0.4,0.1,0.6c0,0.2-0.1,0.4-0.3,0.6
	c-0.2,0.2-0.4,0.3-0.6,0.3c-0.2,0-0.4,0-0.6-0.1c-0.2-0.1-0.4-0.2-0.5-0.4c-0.1-0.2-0.2-0.4-0.2-0.6c0-0.3,0.1-0.6,0.3-0.8
	C96.1,19.4,96.4,19.3,96.7,19.3z M96.7,14.4c-1.2,0-2.4,0.4-3.4,1c-1,0.7-1.8,1.6-2.2,2.7c-0.5,1.1-0.6,2.3-0.3,3.5
	c0.2,1.2,0.8,2.3,1.7,3.1c0.8,0.8,1.9,1.4,3.1,1.7c1.2,0.2,2.4,0.1,3.5-0.3c1.1-0.5,2.1-1.2,2.7-2.2c0.7-1,1-2.2,1-3.4
	c0-0.8-0.2-1.6-0.5-2.3c-0.3-0.7-0.8-1.4-1.3-2c-0.6-0.6-1.2-1-2-1.3S97.5,14.4,96.7,14.4z"/>
<path class="st0" d="M81.8,26.5c3.3,0,5.9-2.7,5.9-6.1s-2.6-6.1-5.9-6.1c-3.3,0-5.9,2.7-5.9,6.1S78.5,26.5,81.8,26.5z"/>
<path class="st0" d="M81.8,30.3c0.9,0,1.8,0.3,2.6,0.8s1.4,1.2,1.7,2.1c0.4,0.9,0.4,1.8,0.3,2.7c-0.2,0.9-0.6,1.7-1.3,2.4
	c-0.7,0.7-1.5,1.1-2.4,1.3c-0.9,0.2-1.9,0.1-2.7-0.3c-0.9-0.4-1.6-1-2.1-1.7c-0.5-0.8-0.8-1.7-0.8-2.6c0-1.2,0.5-2.4,1.4-3.3
	C79.4,30.8,80.6,30.3,81.8,30.3z M81.8,29.1c-1.2,0-2.3,0.3-3.3,1c-1,0.6-1.7,1.6-2.2,2.6c-0.4,1.1-0.6,2.3-0.3,3.4
	c0.2,1.1,0.8,2.2,1.6,3c0.8,0.8,1.9,1.4,3,1.6c1.1,0.2,2.3,0.1,3.4-0.3c1.1-0.4,2-1.2,2.6-2.2c0.6-1,1-2.1,1-3.3
	c0-0.8-0.2-1.5-0.4-2.3s-0.7-1.4-1.3-1.9c-0.5-0.5-1.2-1-1.9-1.3C83.3,29.3,82.6,29.1,81.8,29.1z"/>
<path class="st0" d="M96.7,31.5c0.7,0,1.4,0.2,2,0.6c0.6,0.4,1,0.9,1.3,1.6c0.3,0.6,0.3,1.3,0.2,2c-0.1,0.7-0.5,1.3-1,1.8
	c-0.5,0.5-1.1,0.8-1.8,1c-0.7,0.1-1.4,0.1-2.1-0.2c-0.7-0.3-1.2-0.7-1.6-1.3s-0.6-1.2-0.6-1.9c0-0.9,0.4-1.8,1.1-2.5
	C94.8,31.9,95.7,31.5,96.7,31.5z M96.7,29.1c-1.2,0-2.4,0.3-3.4,1c-1,0.6-1.8,1.6-2.2,2.6c-0.5,1.1-0.6,2.3-0.3,3.4
	c0.2,1.1,0.8,2.2,1.7,3c0.8,0.8,1.9,1.4,3.1,1.6c1.2,0.2,2.4,0.1,3.5-0.3c1.1-0.4,2.1-1.2,2.7-2.2c0.7-1,1-2.1,1-3.3
	c0-0.8-0.2-1.5-0.5-2.3c-0.3-0.7-0.8-1.4-1.3-1.9c-0.6-0.5-1.2-1-2-1.3C98.3,29.3,97.5,29.1,96.7,29.1z"/>
<path class="st0" d="M111.9,32.7c0.5,0,0.9,0.1,1.3,0.4c0.4,0.3,0.7,0.6,0.8,1c0.2,0.4,0.2,0.9,0.1,1.3c-0.1,0.4-0.3,0.9-0.6,1.2
	c-0.3,0.3-0.7,0.5-1.2,0.6s-0.9,0-1.3-0.1c-0.4-0.2-0.8-0.5-1-0.8c-0.3-0.4-0.4-0.8-0.4-1.3c0-0.6,0.2-1.2,0.7-1.6
	S111.3,32.7,111.9,32.7z M111.9,29.1c-1.2,0-2.3,0.3-3.3,1c-1,0.6-1.7,1.6-2.2,2.6c-0.4,1.1-0.6,2.3-0.3,3.4c0.2,1.1,0.8,2.2,1.6,3
	c0.8,0.8,1.9,1.4,3,1.6c1.1,0.2,2.3,0.1,3.4-0.3c1.1-0.4,2-1.2,2.6-2.2c0.6-1,1-2.1,1-3.3c0-1.6-0.6-3.1-1.7-4.2
	C115,29.7,113.5,29.1,111.9,29.1z"/>
<path class="st0" d="M126.8,33.9c0.2,0,0.4,0.1,0.6,0.2c0.2,0.1,0.3,0.3,0.4,0.5c0.1,0.2,0.1,0.4,0.1,0.6c0,0.2-0.1,0.4-0.3,0.6
	c-0.2,0.2-0.4,0.3-0.6,0.3c-0.2,0-0.4,0-0.6-0.1c-0.2-0.1-0.4-0.2-0.5-0.4c-0.1-0.2-0.2-0.4-0.2-0.6c0-0.3,0.1-0.6,0.3-0.8
	C126.2,34,126.5,33.9,126.8,33.9z M126.8,29.1c-1.2,0-2.4,0.3-3.4,1c-1,0.6-1.8,1.6-2.2,2.6c-0.5,1.1-0.6,2.3-0.3,3.4
	c0.2,1.1,0.8,2.2,1.7,3c0.8,0.8,1.9,1.4,3.1,1.6c1.2,0.2,2.4,0.1,3.5-0.3c1.1-0.4,2.1-1.2,2.7-2.2c0.7-1,1-2.1,1-3.3
	c0-1.6-0.6-3.1-1.8-4.2C129.9,29.7,128.4,29.1,126.8,29.1z"/>
<path class="st0" d="M141.7,40.9c3.3,0,5.9-2.6,5.9-5.9s-2.6-5.9-5.9-5.9s-5.9,2.6-5.9,5.9S138.4,40.9,141.7,40.9z"/>
<path class="st0" d="M141.7,45c0.9,0,1.8,0.3,2.6,0.8c0.8,0.5,1.4,1.2,1.7,2c0.4,0.8,0.4,1.7,0.3,2.6c-0.2,0.9-0.6,1.7-1.3,2.3
	c-0.7,0.6-1.5,1.1-2.4,1.2s-1.9,0.1-2.7-0.3c-0.9-0.3-1.6-0.9-2.1-1.7c-0.5-0.7-0.8-1.6-0.8-2.5c0-1.2,0.5-2.4,1.4-3.2
	C139.2,45.5,140.4,45,141.7,45z M141.7,43.8c-1.2,0-2.3,0.3-3.3,1c-1,0.6-1.7,1.5-2.2,2.6c-0.4,1-0.6,2.2-0.3,3.3
	c0.2,1.1,0.8,2.1,1.6,2.9c0.8,0.8,1.9,1.3,3,1.6c1.1,0.2,2.3,0.1,3.4-0.3c1.1-0.4,2-1.2,2.6-2.1c0.6-0.9,1-2,1-3.2
	c0-0.8-0.2-1.5-0.4-2.2c-0.3-0.7-0.7-1.3-1.3-1.9s-1.2-1-1.9-1.2C143.2,44,142.4,43.8,141.7,43.8z"/>
<path class="st0" d="M126.8,46.2c0.7,0,1.4,0.2,2,0.6c0.6,0.4,1,0.9,1.3,1.5c0.3,0.6,0.3,1.3,0.2,2c-0.1,0.7-0.5,1.3-1,1.7
	c-0.5,0.5-1.1,0.8-1.8,0.9c-0.7,0.1-1.4,0.1-2.1-0.2c-0.7-0.3-1.2-0.7-1.6-1.2c-0.4-0.6-0.6-1.2-0.6-1.9c0-0.9,0.4-1.8,1.1-2.4
	C124.9,46.5,125.8,46.2,126.8,46.2z M126.8,43.8c-1.2,0-2.4,0.3-3.4,1c-1,0.6-1.8,1.5-2.2,2.6c-0.5,1-0.6,2.2-0.3,3.3
	c0.2,1.1,0.8,2.1,1.7,2.9c0.8,0.8,1.9,1.3,3.1,1.6c1.2,0.2,2.4,0.1,3.5-0.3s2.1-1.2,2.7-2.1c0.7-0.9,1-2,1-3.2
	c0-0.8-0.2-1.5-0.5-2.2s-0.7-1.3-1.3-1.9c-0.6-0.5-1.2-1-2-1.2C128.4,44,127.6,43.8,126.8,43.8z"/>
<path class="st0" d="M111.9,47.3c0.5,0,0.9,0.1,1.3,0.4c0.4,0.2,0.7,0.6,0.8,1c0.2,0.4,0.2,0.9,0.1,1.3s-0.3,0.8-0.6,1.1
	c-0.3,0.3-0.7,0.5-1.2,0.6c-0.4,0.1-0.9,0-1.3-0.1c-0.4-0.2-0.8-0.5-1-0.8c-0.3-0.4-0.4-0.8-0.4-1.2c0-0.6,0.2-1.2,0.7-1.6
	C110.7,47.6,111.3,47.3,111.9,47.3z M111.9,43.8c-1.2,0-2.3,0.3-3.3,1c-1,0.6-1.7,1.5-2.2,2.6c-0.4,1-0.6,2.2-0.3,3.3
	c0.2,1.1,0.8,2.1,1.6,2.9c0.8,0.8,1.9,1.3,3,1.6c1.1,0.2,2.3,0.1,3.4-0.3c1.1-0.4,2-1.2,2.6-2.1c0.6-0.9,1-2,1-3.2
	c0-0.8-0.2-1.5-0.4-2.2c-0.3-0.7-0.7-1.3-1.3-1.9c-0.5-0.5-1.2-1-1.9-1.2C113.4,44,112.7,43.8,111.9,43.8z"/>
<path class="st0" d="M96.7,48.5c0.2,0,0.4,0.1,0.6,0.2c0.2,0.1,0.3,0.3,0.4,0.5c0.1,0.2,0.1,0.4,0.1,0.6c0,0.2-0.1,0.4-0.3,0.5
	c-0.2,0.1-0.4,0.2-0.6,0.3c-0.2,0-0.4,0-0.6-0.1c-0.2-0.1-0.4-0.2-0.5-0.4c-0.1-0.2-0.2-0.4-0.2-0.6c0-0.3,0.1-0.5,0.3-0.7
	C96.1,48.6,96.4,48.5,96.7,48.5z M96.7,43.8c-1.2,0-2.4,0.3-3.4,1c-1,0.6-1.8,1.5-2.2,2.6c-0.5,1-0.6,2.2-0.3,3.3
	c0.2,1.1,0.8,2.1,1.7,2.9c0.8,0.8,1.9,1.3,3.1,1.6c1.2,0.2,2.4,0.1,3.5-0.3c1.1-0.4,2.1-1.2,2.7-2.1c0.7-0.9,1-2,1-3.2
	c0-0.8-0.2-1.5-0.5-2.2c-0.3-0.7-0.7-1.3-1.3-1.9c-0.6-0.5-1.2-1-2-1.2S97.5,43.8,96.7,43.8z"/>
<path class="st0" d="M81.8,55.3c3.3,0,5.9-2.6,5.9-5.7c0-3.2-2.6-5.7-5.9-5.7c-3.3,0-5.9,2.6-5.9,5.7C75.9,52.7,78.5,55.3,81.8,55.3
	z"/>
<path class="st0" d="M81.8,59.4c0.9,0,1.8,0.3,2.6,0.8c0.8,0.5,1.4,1.2,1.7,2.1c0.4,0.9,0.4,1.8,0.3,2.7c-0.2,0.9-0.6,1.7-1.3,2.4
	c-0.7,0.7-1.5,1.1-2.4,1.3c-0.9,0.2-1.9,0.1-2.7-0.3s-1.6-1-2.1-1.7s-0.8-1.7-0.8-2.6c0-1.2,0.5-2.4,1.4-3.3
	C79.4,59.9,80.6,59.4,81.8,59.4z M81.8,58.2c-1.2,0-2.3,0.3-3.3,1c-1,0.6-1.7,1.6-2.2,2.6c-0.4,1.1-0.6,2.3-0.3,3.4
	c0.2,1.1,0.8,2.2,1.6,3c0.8,0.8,1.9,1.4,3,1.6c1.1,0.2,2.3,0.1,3.4-0.3c1.1-0.4,2-1.2,2.6-2.2c0.6-1,1-2.1,1-3.3
	c0-1.6-0.6-3.1-1.7-4.2C84.9,58.8,83.4,58.2,81.8,58.2z"/>
<path class="st0" d="M96.7,60.6c0.7,0,1.4,0.2,2,0.6c0.6,0.4,1,0.9,1.3,1.6c0.3,0.6,0.3,1.3,0.2,2c-0.1,0.7-0.5,1.3-1,1.8
	c-0.5,0.5-1.1,0.8-1.8,1c-0.7,0.1-1.4,0.1-2.1-0.2s-1.2-0.7-1.6-1.3c-0.4-0.6-0.6-1.2-0.6-1.9c0-0.9,0.4-1.8,1.1-2.5
	C94.8,61,95.7,60.6,96.7,60.6z M96.7,58.2c-1.2,0-2.4,0.3-3.4,1c-1,0.6-1.8,1.6-2.2,2.6c-0.5,1.1-0.6,2.3-0.3,3.4
	c0.2,1.1,0.8,2.2,1.7,3c0.8,0.8,1.9,1.4,3.1,1.6c1.2,0.2,2.4,0.1,3.5-0.3c1.1-0.4,2.1-1.2,2.7-2.2s1-2.1,1-3.3
	c0-1.6-0.6-3.1-1.8-4.2C99.8,58.8,98.3,58.2,96.7,58.2z"/>
<path class="st0" d="M111.9,61.8c0.5,0,0.9,0.1,1.3,0.4c0.4,0.3,0.7,0.6,0.8,1c0.2,0.4,0.2,0.9,0.1,1.3c-0.1,0.4-0.3,0.9-0.6,1.2
	c-0.3,0.3-0.7,0.5-1.2,0.6s-0.9,0-1.3-0.1c-0.4-0.2-0.8-0.5-1-0.8c-0.3-0.4-0.4-0.8-0.4-1.3c0-0.6,0.2-1.2,0.7-1.6
	C110.7,62.1,111.3,61.8,111.9,61.8z M111.9,58.2c-1.2,0-2.3,0.3-3.3,1c-1,0.6-1.7,1.6-2.2,2.6c-0.4,1.1-0.6,2.3-0.3,3.4
	c0.2,1.1,0.8,2.2,1.6,3c0.8,0.8,1.9,1.4,3,1.6c1.1,0.2,2.3,0.1,3.4-0.3c1.1-0.4,2-1.2,2.6-2.2c0.6-1,1-2.1,1-3.3
	c0-1.6-0.6-3.1-1.7-4.2C115,58.8,113.5,58.2,111.9,58.2z"/>
<path class="st0" d="M126.8,63c0.2,0,0.4,0.1,0.6,0.2c0.2,0.1,0.3,0.3,0.4,0.5c0.1,0.2,0.1,0.4,0.1,0.6s-0.1,0.4-0.3,0.6
	c-0.2,0.2-0.4,0.3-0.6,0.3c-0.2,0-0.4,0-0.6-0.1c-0.2-0.1-0.4-0.2-0.5-0.4c-0.1-0.2-0.2-0.4-0.2-0.6c0-0.3,0.1-0.6,0.3-0.8
	C126.2,63.1,126.5,63,126.8,63z M126.8,58.2c-1.2,0-2.4,0.3-3.4,1c-1,0.6-1.8,1.6-2.2,2.6c-0.5,1.1-0.6,2.3-0.3,3.4
	c0.2,1.1,0.8,2.2,1.7,3c0.8,0.8,1.9,1.4,3.1,1.6c1.2,0.2,2.4,0.1,3.5-0.3c1.1-0.4,2.1-1.2,2.7-2.2c0.7-1,1-2.1,1-3.3
	c0-1.6-0.6-3.1-1.8-4.2C129.9,58.8,128.4,58.2,126.8,58.2z"/>
<path class="st0" d="M141.7,70c3.3,0,5.9-2.6,5.9-5.9c0-3.3-2.6-5.9-5.9-5.9s-5.9,2.6-5.9,5.9C135.8,67.4,138.4,70,141.7,70z"/>
<path class="st0" d="M157.7,1.2c0.9,0,1.8,0.3,2.6,0.8c0.8,0.5,1.4,1.2,1.7,2.1c0.4,0.9,0.4,1.8,0.3,2.7c-0.2,0.9-0.6,1.7-1.3,2.4
	c-0.7,0.7-1.5,1.1-2.4,1.3c-0.9,0.2-1.9,0.1-2.7-0.3c-0.9-0.4-1.6-1-2.1-1.7c-0.5-0.8-0.8-1.7-0.8-2.6c0-1.2,0.5-2.4,1.4-3.3
	C155.3,1.7,156.5,1.2,157.7,1.2z M157.7,0c-1.2,0-2.3,0.3-3.3,1c-1,0.6-1.7,1.6-2.2,2.6c-0.4,1.1-0.6,2.3-0.3,3.4
	c0.2,1.1,0.8,2.2,1.6,3c0.8,0.8,1.9,1.4,3,1.6c1.1,0.2,2.3,0.1,3.4-0.3s2-1.2,2.6-2.2c0.6-1,1-2.1,1-3.3c0-0.8-0.2-1.5-0.4-2.3
	c-0.3-0.7-0.7-1.4-1.3-1.9c-0.5-0.5-1.2-1-1.9-1.3C159.2,0.2,158.5,0,157.7,0z"/>
<path class="st0" d="M172.6,2.4c0.7,0,1.4,0.2,2,0.6s1,0.9,1.3,1.6c0.3,0.6,0.3,1.3,0.2,2c-0.1,0.7-0.5,1.3-1,1.8
	c-0.5,0.5-1.1,0.8-1.8,1c-0.7,0.1-1.4,0.1-2.1-0.2c-0.7-0.3-1.2-0.7-1.6-1.3c-0.4-0.6-0.6-1.2-0.6-1.9c0-0.9,0.4-1.8,1.1-2.5
	C170.7,2.8,171.6,2.4,172.6,2.4z M172.6,0c-1.2,0-2.4,0.3-3.4,1c-1,0.6-1.8,1.6-2.2,2.6c-0.5,1.1-0.6,2.3-0.3,3.4
	c0.2,1.1,0.8,2.2,1.7,3c0.8,0.8,1.9,1.4,3.1,1.6c1.2,0.2,2.4,0.1,3.5-0.3c1.1-0.4,2-1.2,2.7-2.2c0.7-1,1-2.1,1-3.3
	c0-0.8-0.2-1.5-0.5-2.3c-0.3-0.7-0.8-1.4-1.3-1.9c-0.6-0.5-1.2-1-2-1.3C174.2,0.2,173.4,0,172.6,0z"/>
<path class="st0" d="M187.8,3.6c0.5,0,0.9,0.1,1.3,0.4c0.4,0.3,0.7,0.6,0.8,1c0.2,0.4,0.2,0.9,0.1,1.3c-0.1,0.4-0.3,0.9-0.6,1.2
	c-0.3,0.3-0.7,0.5-1.2,0.6c-0.4,0.1-0.9,0-1.3-0.1c-0.4-0.2-0.8-0.5-1-0.8c-0.3-0.4-0.4-0.8-0.4-1.3c0-0.6,0.2-1.2,0.7-1.6
	C186.6,3.8,187.2,3.6,187.8,3.6z M187.8,0c-1.2,0-2.3,0.3-3.3,1c-1,0.6-1.7,1.6-2.2,2.6c-0.4,1.1-0.6,2.3-0.3,3.4s0.8,2.2,1.6,3
	c0.8,0.8,1.9,1.4,3,1.6c1.1,0.2,2.3,0.1,3.4-0.3c1.1-0.4,2-1.2,2.6-2.2c0.6-1,1-2.1,1-3.3c0-0.8-0.2-1.5-0.4-2.3
	c-0.3-0.7-0.7-1.4-1.3-1.9c-0.5-0.5-1.2-1-1.9-1.3C189.3,0.2,188.6,0,187.8,0z"/>
<path class="st0" d="M202.7,4.8c0.2,0,0.4,0.1,0.6,0.2c0.2,0.1,0.3,0.3,0.4,0.5c0.1,0.2,0.1,0.4,0.1,0.6s-0.1,0.4-0.3,0.6
	c-0.2,0.2-0.4,0.3-0.6,0.3c-0.2,0-0.4,0-0.6-0.1s-0.4-0.2-0.5-0.4c-0.1-0.2-0.2-0.4-0.2-0.6c0-0.3,0.1-0.6,0.3-0.8
	C202.1,4.9,202.4,4.8,202.7,4.8z M202.7,0c-1.2,0-2.4,0.3-3.4,1c-1,0.6-1.8,1.6-2.2,2.6c-0.5,1.1-0.6,2.3-0.3,3.4
	c0.2,1.1,0.8,2.2,1.7,3c0.8,0.8,1.9,1.4,3.1,1.6c1.2,0.2,2.4,0.1,3.5-0.3s2.1-1.2,2.7-2.2c0.7-1,1-2.1,1-3.3c0-1.6-0.6-3.1-1.8-4.2
	C205.8,0.6,204.3,0,202.7,0z"/>
<path class="st0" d="M217.6,11.8c3.3,0,5.9-2.6,5.9-5.9S220.8,0,217.6,0c-3.3,0-5.9,2.6-5.9,5.9S214.3,11.8,217.6,11.8z"/>
<path class="st0" d="M217.6,15.6c0.9,0,1.8,0.3,2.6,0.8c0.8,0.5,1.4,1.3,1.7,2.2c0.4,0.9,0.4,1.8,0.3,2.8c-0.2,0.9-0.6,1.8-1.3,2.5
	c-0.7,0.7-1.5,1.1-2.4,1.3c-0.9,0.2-1.9,0.1-2.7-0.3c-0.9-0.4-1.6-1-2.1-1.8c-0.5-0.8-0.8-1.7-0.8-2.7c0-1.3,0.5-2.5,1.4-3.4
	C215.1,16.1,216.3,15.6,217.6,15.6z M217.6,14.4c-1.2,0-2.3,0.4-3.3,1c-1,0.7-1.7,1.6-2.2,2.7c-0.4,1.1-0.6,2.3-0.3,3.5
	c0.2,1.2,0.8,2.3,1.6,3.1c0.8,0.8,1.9,1.4,3,1.7c1.1,0.2,2.3,0.1,3.4-0.3c1.1-0.5,2-1.2,2.6-2.2c0.6-1,1-2.2,1-3.4
	c0-0.8-0.2-1.6-0.4-2.3c-0.3-0.7-0.7-1.4-1.3-2c-0.5-0.6-1.2-1-1.9-1.3C219.1,14.5,218.3,14.4,217.6,14.4z"/>
<path class="st0" d="M202.7,16.9c0.7,0,1.4,0.2,2,0.6c0.6,0.4,1,1,1.3,1.6s0.3,1.4,0.2,2.1c-0.1,0.7-0.5,1.3-1,1.8
	c-0.5,0.5-1.1,0.8-1.8,1c-0.7,0.1-1.4,0.1-2.1-0.2c-0.7-0.3-1.2-0.7-1.6-1.3c-0.4-0.6-0.6-1.3-0.6-2c0-0.9,0.4-1.9,1.1-2.5
	S201.7,16.9,202.7,16.9z M202.7,14.4c-1.2,0-2.4,0.4-3.4,1c-1,0.7-1.8,1.6-2.2,2.7c-0.5,1.1-0.6,2.3-0.3,3.5
	c0.2,1.2,0.8,2.3,1.7,3.1c0.8,0.8,1.9,1.4,3.1,1.7c1.2,0.2,2.4,0.1,3.5-0.3c1.1-0.5,2.1-1.2,2.7-2.2c0.7-1,1-2.2,1-3.4
	c0-1.6-0.6-3.1-1.8-4.3C205.8,15,204.3,14.4,202.7,14.4z"/>
<path class="st0" d="M187.8,18.1c0.5,0,0.9,0.1,1.3,0.4c0.4,0.3,0.7,0.6,0.8,1.1c0.2,0.4,0.2,0.9,0.1,1.4c-0.1,0.5-0.3,0.9-0.6,1.2
	c-0.3,0.3-0.7,0.6-1.2,0.6c-0.4,0.1-0.9,0-1.3-0.1c-0.4-0.2-0.8-0.5-1-0.9c-0.3-0.4-0.4-0.8-0.4-1.3c0-0.6,0.2-1.2,0.7-1.7
	C186.6,18.3,187.2,18.1,187.8,18.1z M187.8,14.4c-1.2,0-2.3,0.4-3.3,1c-1,0.7-1.7,1.6-2.2,2.7c-0.4,1.1-0.6,2.3-0.3,3.5
	c0.2,1.2,0.8,2.3,1.6,3.1c0.8,0.8,1.9,1.4,3,1.7c1.1,0.2,2.3,0.1,3.4-0.3c1.1-0.5,2-1.2,2.6-2.2c0.6-1,1-2.2,1-3.4
	c0-1.6-0.6-3.1-1.7-4.3C190.9,15,189.4,14.4,187.8,14.4z"/>
<path class="st0" d="M172.6,19.3c0.2,0,0.4,0.1,0.6,0.2c0.2,0.1,0.3,0.3,0.4,0.5c0.1,0.2,0.1,0.4,0.1,0.6c0,0.2-0.1,0.4-0.3,0.6
	c-0.2,0.2-0.4,0.3-0.6,0.3c-0.2,0-0.4,0-0.6-0.1c-0.2-0.1-0.4-0.2-0.5-0.4c-0.1-0.2-0.2-0.4-0.2-0.6c0-0.3,0.1-0.6,0.3-0.8
	C172,19.4,172.3,19.3,172.6,19.3z M172.6,14.4c-1.2,0-2.4,0.4-3.4,1c-1,0.7-1.8,1.6-2.2,2.7c-0.5,1.1-0.6,2.3-0.3,3.5
	c0.2,1.2,0.8,2.3,1.7,3.1c0.8,0.8,1.9,1.4,3.1,1.7c1.2,0.2,2.4,0.1,3.5-0.3c1.1-0.5,2-1.2,2.7-2.2c0.7-1,1-2.2,1-3.4
	c0-0.8-0.2-1.6-0.5-2.3c-0.3-0.7-0.8-1.4-1.3-2c-0.6-0.6-1.2-1-2-1.3C174.2,14.5,173.4,14.4,172.6,14.4z"/>
<path class="st0" d="M157.7,26.5c3.3,0,5.9-2.7,5.9-6.1s-2.6-6.1-5.9-6.1s-5.9,2.7-5.9,6.1S154.5,26.5,157.7,26.5z"/>
<path class="st0" d="M157.7,30.3c0.9,0,1.8,0.3,2.6,0.8c0.8,0.5,1.4,1.2,1.7,2.1c0.4,0.9,0.4,1.8,0.3,2.7s-0.6,1.7-1.3,2.4
	c-0.7,0.7-1.5,1.1-2.4,1.3c-0.9,0.2-1.9,0.1-2.7-0.3c-0.9-0.4-1.6-1-2.1-1.7c-0.5-0.8-0.8-1.7-0.8-2.6c0-1.2,0.5-2.4,1.4-3.3
	C155.3,30.8,156.5,30.3,157.7,30.3z M157.7,29.1c-1.2,0-2.3,0.3-3.3,1c-1,0.6-1.7,1.6-2.2,2.6c-0.4,1.1-0.6,2.3-0.3,3.4
	c0.2,1.1,0.8,2.2,1.6,3c0.8,0.8,1.9,1.4,3,1.6c1.1,0.2,2.3,0.1,3.4-0.3s2-1.2,2.6-2.2c0.6-1,1-2.1,1-3.3c0-0.8-0.2-1.5-0.4-2.3
	c-0.3-0.7-0.7-1.4-1.3-1.9c-0.5-0.5-1.2-1-1.9-1.3C159.2,29.3,158.5,29.1,157.7,29.1z"/>
<path class="st0" d="M172.6,31.5c0.7,0,1.4,0.2,2,0.6c0.6,0.4,1,0.9,1.3,1.6c0.3,0.6,0.3,1.3,0.2,2c-0.1,0.7-0.5,1.3-1,1.8
	c-0.5,0.5-1.1,0.8-1.8,1c-0.7,0.1-1.4,0.1-2.1-0.2c-0.7-0.3-1.2-0.7-1.6-1.3c-0.4-0.6-0.6-1.2-0.6-1.9c0-0.9,0.4-1.8,1.1-2.5
	C170.7,31.9,171.6,31.5,172.6,31.5z M172.6,29.1c-1.2,0-2.4,0.3-3.4,1c-1,0.6-1.8,1.6-2.2,2.6c-0.5,1.1-0.6,2.3-0.3,3.4
	c0.2,1.1,0.8,2.2,1.7,3c0.8,0.8,1.9,1.4,3.1,1.6s2.4,0.1,3.5-0.3c1.1-0.4,2-1.2,2.7-2.2c0.7-1,1-2.1,1-3.3c0-0.8-0.2-1.5-0.5-2.3
	c-0.3-0.7-0.8-1.4-1.3-1.9c-0.6-0.5-1.2-1-2-1.3C174.2,29.3,173.4,29.1,172.6,29.1z"/>
<path class="st0" d="M187.8,32.7c0.5,0,0.9,0.1,1.3,0.4c0.4,0.3,0.7,0.6,0.8,1c0.2,0.4,0.2,0.9,0.1,1.3c-0.1,0.4-0.3,0.9-0.6,1.2
	c-0.3,0.3-0.7,0.5-1.2,0.6c-0.4,0.1-0.9,0-1.3-0.1c-0.4-0.2-0.8-0.5-1-0.8c-0.3-0.4-0.4-0.8-0.4-1.3c0-0.6,0.2-1.2,0.7-1.6
	C186.6,33,187.2,32.7,187.8,32.7z M187.8,29.1c-1.2,0-2.3,0.3-3.3,1c-1,0.6-1.7,1.6-2.2,2.6c-0.4,1.1-0.6,2.3-0.3,3.4
	c0.2,1.1,0.8,2.2,1.6,3c0.8,0.8,1.9,1.4,3,1.6c1.1,0.2,2.3,0.1,3.4-0.3c1.1-0.4,2-1.2,2.6-2.2c0.6-1,1-2.1,1-3.3
	c0-1.6-0.6-3.1-1.7-4.2C190.9,29.7,189.4,29.1,187.8,29.1z"/>
<path class="st0" d="M202.7,33.9c0.2,0,0.4,0.1,0.6,0.2c0.2,0.1,0.3,0.3,0.4,0.5c0.1,0.2,0.1,0.4,0.1,0.6c0,0.2-0.1,0.4-0.3,0.6
	s-0.4,0.3-0.6,0.3c-0.2,0-0.4,0-0.6-0.1c-0.2-0.1-0.4-0.2-0.5-0.4c-0.1-0.2-0.2-0.4-0.2-0.6c0-0.3,0.1-0.6,0.3-0.8
	C202.1,34,202.4,33.9,202.7,33.9z M202.7,29.1c-1.2,0-2.4,0.3-3.4,1c-1,0.6-1.8,1.6-2.2,2.6c-0.5,1.1-0.6,2.3-0.3,3.4
	c0.2,1.1,0.8,2.2,1.7,3c0.8,0.8,1.9,1.4,3.1,1.6c1.2,0.2,2.4,0.1,3.5-0.3s2.1-1.2,2.7-2.2c0.7-1,1-2.1,1-3.3c0-1.6-0.6-3.1-1.8-4.2
	C205.8,29.7,204.3,29.1,202.7,29.1z"/>
<path class="st0" d="M217.6,40.9c3.3,0,5.9-2.6,5.9-5.9s-2.6-5.9-5.9-5.9c-3.3,0-5.9,2.6-5.9,5.9S214.3,40.9,217.6,40.9z"/>
<path class="st0" d="M217.6,45c0.9,0,1.8,0.3,2.6,0.8s1.4,1.2,1.7,2c0.4,0.8,0.4,1.7,0.3,2.6c-0.2,0.9-0.6,1.7-1.3,2.3
	c-0.7,0.6-1.5,1.1-2.4,1.2s-1.9,0.1-2.7-0.3c-0.9-0.3-1.6-0.9-2.1-1.7c-0.5-0.7-0.8-1.6-0.8-2.5c0-1.2,0.5-2.4,1.4-3.2
	C215.1,45.5,216.3,45,217.6,45z M217.6,43.8c-1.2,0-2.3,0.3-3.3,1c-1,0.6-1.7,1.5-2.2,2.6c-0.4,1-0.6,2.2-0.3,3.3
	c0.2,1.1,0.8,2.1,1.6,2.9c0.8,0.8,1.9,1.3,3,1.6c1.1,0.2,2.3,0.1,3.4-0.3c1.1-0.4,2-1.2,2.6-2.1c0.6-0.9,1-2,1-3.2
	c0-0.8-0.2-1.5-0.4-2.2c-0.3-0.7-0.7-1.3-1.3-1.9c-0.5-0.5-1.2-1-1.9-1.2C219.1,44,218.3,43.8,217.6,43.8z"/>
<path class="st0" d="M202.7,46.2c0.7,0,1.4,0.2,2,0.6c0.6,0.4,1,0.9,1.3,1.5c0.3,0.6,0.3,1.3,0.2,2c-0.1,0.7-0.5,1.3-1,1.7
	c-0.5,0.5-1.1,0.8-1.8,0.9c-0.7,0.1-1.4,0.1-2.1-0.2c-0.7-0.3-1.2-0.7-1.6-1.2c-0.4-0.6-0.6-1.2-0.6-1.9c0-0.9,0.4-1.8,1-2.4
	C200.8,46.5,201.7,46.2,202.7,46.2z M202.7,43.8c-1.2,0-2.4,0.3-3.4,1c-1,0.6-1.8,1.5-2.2,2.6c-0.5,1-0.6,2.2-0.3,3.3
	c0.2,1.1,0.8,2.1,1.7,2.9c0.8,0.8,1.9,1.3,3.1,1.6c1.2,0.2,2.4,0.1,3.5-0.3c1.1-0.4,2.1-1.2,2.7-2.1c0.7-0.9,1-2,1-3.2
	c0-0.8-0.2-1.5-0.5-2.2s-0.8-1.3-1.3-1.9c-0.6-0.5-1.2-1-2-1.2C204.3,44,203.5,43.8,202.7,43.8z"/>
<path class="st0" d="M187.8,47.3c0.5,0,0.9,0.1,1.3,0.4c0.4,0.2,0.7,0.6,0.8,1c0.2,0.4,0.2,0.9,0.1,1.3c-0.1,0.4-0.3,0.8-0.6,1.1
	c-0.3,0.3-0.7,0.5-1.2,0.6c-0.4,0.1-0.9,0-1.3-0.1s-0.8-0.5-1-0.8c-0.3-0.4-0.4-0.8-0.4-1.2c0-0.6,0.2-1.2,0.7-1.6
	C186.6,47.6,187.2,47.3,187.8,47.3z M187.8,43.8c-1.2,0-2.3,0.3-3.3,1c-1,0.6-1.7,1.5-2.2,2.6c-0.4,1-0.6,2.2-0.3,3.3
	c0.2,1.1,0.8,2.1,1.6,2.9c0.8,0.8,1.9,1.3,3,1.6c1.1,0.2,2.3,0.1,3.4-0.3c1.1-0.4,2-1.2,2.6-2.1c0.6-0.9,1-2,1-3.2
	c0-0.8-0.2-1.5-0.4-2.2s-0.7-1.3-1.3-1.9c-0.5-0.5-1.2-1-1.9-1.2S188.6,43.8,187.8,43.8z"/>
<path class="st0" d="M172.6,48.5c0.2,0,0.4,0.1,0.6,0.2c0.2,0.1,0.3,0.3,0.4,0.5s0.1,0.4,0.1,0.6c0,0.2-0.1,0.4-0.3,0.5
	c-0.2,0.1-0.4,0.2-0.6,0.3c-0.2,0-0.4,0-0.6-0.1c-0.2-0.1-0.4-0.2-0.5-0.4c-0.1-0.2-0.2-0.4-0.2-0.6c0-0.3,0.1-0.5,0.3-0.7
	C172,48.6,172.3,48.5,172.6,48.5z M172.6,43.8c-1.2,0-2.4,0.3-3.4,1c-1,0.6-1.8,1.5-2.2,2.6c-0.5,1-0.6,2.2-0.3,3.3
	c0.2,1.1,0.8,2.1,1.7,2.9c0.8,0.8,1.9,1.3,3.1,1.6c1.2,0.2,2.4,0.1,3.5-0.3c1.1-0.4,2.1-1.2,2.7-2.1c0.7-0.9,1-2,1-3.2
	c0-0.8-0.2-1.5-0.5-2.2c-0.3-0.7-0.7-1.3-1.3-1.9c-0.6-0.5-1.2-1-2-1.2C174.2,44,173.4,43.8,172.6,43.8z"/>
<path class="st0" d="M157.7,55.3c3.3,0,5.9-2.6,5.9-5.7c0-3.2-2.6-5.7-5.9-5.7s-5.9,2.6-5.9,5.7C151.8,52.7,154.5,55.3,157.7,55.3z"
	/>
<path class="st0" d="M157.7,59.4c0.9,0,1.8,0.3,2.6,0.8c0.8,0.5,1.4,1.2,1.7,2.1c0.4,0.9,0.4,1.8,0.3,2.7c-0.2,0.9-0.6,1.7-1.3,2.4
	c-0.7,0.7-1.5,1.1-2.4,1.3s-1.9,0.1-2.7-0.3s-1.6-1-2.1-1.7S153,65,153,64.1c0-1.2,0.5-2.4,1.4-3.3
	C155.3,59.9,156.5,59.4,157.7,59.4z M157.7,58.2c-1.2,0-2.3,0.3-3.3,1c-1,0.6-1.7,1.6-2.2,2.6c-0.4,1.1-0.6,2.3-0.3,3.4
	c0.2,1.1,0.8,2.2,1.6,3c0.8,0.8,1.9,1.4,3,1.6c1.1,0.2,2.3,0.1,3.4-0.3c1.1-0.4,2-1.2,2.6-2.2c0.6-1,1-2.1,1-3.3
	c0-1.6-0.6-3.1-1.7-4.2C160.8,58.8,159.3,58.2,157.7,58.2z"/>
<path class="st0" d="M172.6,60.6c0.7,0,1.4,0.2,2,0.6c0.6,0.4,1,0.9,1.3,1.6c0.3,0.6,0.3,1.3,0.2,2c-0.1,0.7-0.5,1.3-1,1.8
	c-0.5,0.5-1.1,0.8-1.8,1c-0.7,0.1-1.4,0.1-2.1-0.2c-0.7-0.3-1.2-0.7-1.6-1.3c-0.4-0.6-0.6-1.2-0.6-1.9c0-0.9,0.4-1.8,1.1-2.5
	C170.7,61,171.6,60.6,172.6,60.6z M172.6,58.2c-1.2,0-2.4,0.3-3.4,1c-1,0.6-1.8,1.6-2.2,2.6c-0.5,1.1-0.6,2.3-0.3,3.4
	c0.2,1.1,0.8,2.2,1.7,3c0.8,0.8,1.9,1.4,3.1,1.6c1.2,0.2,2.4,0.1,3.5-0.3c1.1-0.4,2.1-1.2,2.7-2.2c0.7-1,1-2.1,1-3.3
	c0-1.6-0.6-3.1-1.8-4.2C175.7,58.8,174.2,58.2,172.6,58.2z"/>
<path class="st0" d="M187.8,61.8c0.5,0,0.9,0.1,1.3,0.4c0.4,0.3,0.7,0.6,0.8,1c0.2,0.4,0.2,0.9,0.1,1.3c-0.1,0.4-0.3,0.9-0.6,1.2
	c-0.3,0.3-0.7,0.5-1.2,0.6s-0.9,0-1.3-0.1c-0.4-0.2-0.8-0.5-1-0.8c-0.3-0.4-0.4-0.8-0.4-1.3c0-0.6,0.2-1.2,0.7-1.6
	C186.6,62.1,187.2,61.8,187.8,61.8z M187.8,58.2c-1.2,0-2.3,0.3-3.3,1c-1,0.6-1.7,1.6-2.2,2.6c-0.4,1.1-0.6,2.3-0.3,3.4
	c0.2,1.1,0.8,2.2,1.6,3c0.8,0.8,1.9,1.4,3,1.6c1.1,0.2,2.3,0.1,3.4-0.3c1.1-0.4,2-1.2,2.6-2.2s1-2.1,1-3.3c0-1.6-0.6-3.1-1.7-4.2
	C190.9,58.8,189.4,58.2,187.8,58.2z"/>
<path class="st0" d="M202.7,63c0.2,0,0.4,0.1,0.6,0.2c0.2,0.1,0.3,0.3,0.4,0.5c0.1,0.2,0.1,0.4,0.1,0.6s-0.1,0.4-0.3,0.6
	c-0.2,0.2-0.4,0.3-0.6,0.3c-0.2,0-0.4,0-0.6-0.1c-0.2-0.1-0.4-0.2-0.5-0.4c-0.1-0.2-0.2-0.4-0.2-0.6c0-0.3,0.1-0.6,0.3-0.8
	C202.1,63.1,202.4,63,202.7,63z M202.7,58.2c-1.2,0-2.4,0.3-3.4,1c-1,0.6-1.8,1.6-2.2,2.6c-0.5,1.1-0.6,2.3-0.3,3.4
	c0.2,1.1,0.8,2.2,1.7,3c0.8,0.8,1.9,1.4,3.1,1.6c1.2,0.2,2.4,0.1,3.5-0.3c1.1-0.4,2.1-1.2,2.7-2.2c0.7-1,1-2.1,1-3.3
	c0-1.6-0.6-3.1-1.8-4.2C205.8,58.8,204.3,58.2,202.7,58.2z"/>
<path class="st0" d="M217.6,70c3.3,0,5.9-2.6,5.9-5.9c0-3.3-2.6-5.9-5.9-5.9c-3.3,0-5.9,2.6-5.9,5.9C211.7,67.4,214.3,70,217.6,70z"
	/>
<path class="st0" d="M233.6,1.2c0.9,0,1.8,0.3,2.6,0.8c0.8,0.5,1.4,1.2,1.7,2.1c0.4,0.9,0.4,1.8,0.3,2.7c-0.2,0.9-0.6,1.7-1.3,2.4
	s-1.5,1.1-2.4,1.3c-0.9,0.2-1.9,0.1-2.7-0.3c-0.9-0.4-1.6-1-2.1-1.7c-0.5-0.8-0.8-1.7-0.8-2.6c0-1.2,0.5-2.4,1.4-3.3
	C231.2,1.7,232.4,1.2,233.6,1.2z M233.6,0c-1.2,0-2.3,0.3-3.3,1c-1,0.6-1.7,1.6-2.2,2.6c-0.4,1.1-0.6,2.3-0.3,3.4
	c0.2,1.1,0.8,2.2,1.6,3c0.8,0.8,1.9,1.4,3,1.6c1.1,0.2,2.3,0.1,3.4-0.3c1.1-0.4,2-1.2,2.6-2.2c0.6-1,1-2.1,1-3.3
	c0-0.8-0.2-1.5-0.4-2.3c-0.3-0.7-0.7-1.4-1.3-1.9c-0.5-0.5-1.2-1-1.9-1.3C235.2,0.2,234.4,0,233.6,0z"/>
<path class="st0" d="M248.5,2.4c0.7,0,1.4,0.2,2,0.6c0.6,0.4,1,0.9,1.3,1.6c0.3,0.6,0.3,1.3,0.2,2c-0.1,0.7-0.5,1.3-1,1.8
	c-0.5,0.5-1.1,0.8-1.8,1c-0.7,0.1-1.4,0.1-2.1-0.2c-0.7-0.3-1.2-0.7-1.6-1.3c-0.4-0.6-0.6-1.2-0.6-1.9c0-0.9,0.4-1.8,1.1-2.5
	C246.6,2.8,247.6,2.4,248.5,2.4z M248.5,0c-1.2,0-2.4,0.3-3.4,1c-1,0.6-1.8,1.6-2.2,2.6c-0.5,1.1-0.6,2.3-0.3,3.4s0.8,2.2,1.7,3
	c0.8,0.8,1.9,1.4,3.1,1.6c1.2,0.2,2.4,0.1,3.5-0.3c1.1-0.4,2.1-1.2,2.7-2.2c0.7-1,1-2.1,1-3.3c0-0.8-0.2-1.5-0.5-2.3
	c-0.3-0.7-0.7-1.4-1.3-1.9c-0.6-0.5-1.2-1-2-1.3C250.1,0.2,249.3,0,248.5,0z"/>
<path class="st0" d="M263.7,3.6c0.5,0,0.9,0.1,1.3,0.4c0.4,0.3,0.7,0.6,0.8,1c0.2,0.4,0.2,0.9,0.1,1.3c-0.1,0.4-0.3,0.9-0.6,1.2
	s-0.7,0.5-1.2,0.6s-0.9,0-1.3-0.1c-0.4-0.2-0.8-0.5-1-0.8s-0.4-0.8-0.4-1.3c0-0.6,0.2-1.2,0.7-1.6C262.5,3.8,263.1,3.6,263.7,3.6z
	 M263.7,0c-1.2,0-2.3,0.3-3.3,1c-1,0.6-1.7,1.6-2.2,2.6c-0.4,1.1-0.6,2.3-0.3,3.4c0.2,1.1,0.8,2.2,1.6,3c0.8,0.8,1.9,1.4,3,1.6
	c1.1,0.2,2.3,0.1,3.4-0.3c1.1-0.4,2-1.2,2.6-2.2c0.6-1,1-2.1,1-3.3c0-0.8-0.2-1.5-0.4-2.3c-0.3-0.7-0.7-1.4-1.3-1.9
	c-0.5-0.5-1.2-1-1.9-1.3C265.2,0.2,264.5,0,263.7,0z"/>
<path class="st0" d="M278.6,4.8c0.2,0,0.4,0.1,0.6,0.2c0.2,0.1,0.3,0.3,0.4,0.5c0.1,0.2,0.1,0.4,0.1,0.6c0,0.2-0.1,0.4-0.3,0.6
	c-0.2,0.2-0.4,0.3-0.6,0.3c-0.2,0-0.4,0-0.6-0.1s-0.4-0.2-0.5-0.4c-0.1-0.2-0.2-0.4-0.2-0.6c0-0.3,0.1-0.6,0.3-0.8
	C278,4.9,278.3,4.8,278.6,4.8z M278.6,0c-1.2,0-2.4,0.3-3.4,1c-1,0.6-1.8,1.6-2.2,2.6c-0.5,1.1-0.6,2.3-0.3,3.4
	c0.2,1.1,0.8,2.2,1.7,3c0.8,0.8,1.9,1.4,3.1,1.6c1.2,0.2,2.4,0.1,3.5-0.3c1.1-0.4,2.1-1.2,2.7-2.2c0.7-1,1-2.1,1-3.3
	c0-1.6-0.6-3.1-1.8-4.2C281.7,0.6,280.2,0,278.6,0z"/>
<path class="st0" d="M293.5,11.8c3.3,0,5.9-2.6,5.9-5.9S296.7,0,293.5,0c-3.3,0-5.9,2.6-5.9,5.9S290.2,11.8,293.5,11.8z"/>
<path class="st0" d="M293.5,15.6c0.9,0,1.8,0.3,2.6,0.8c0.8,0.5,1.4,1.3,1.7,2.2c0.4,0.9,0.4,1.8,0.3,2.8s-0.6,1.8-1.3,2.5
	c-0.7,0.7-1.5,1.1-2.4,1.3c-0.9,0.2-1.9,0.1-2.7-0.3c-0.9-0.4-1.6-1-2.1-1.8c-0.5-0.8-0.8-1.7-0.8-2.7c0-1.3,0.5-2.5,1.4-3.4
	C291,16.1,292.2,15.6,293.5,15.6z M293.5,14.4c-1.2,0-2.3,0.4-3.3,1c-1,0.7-1.7,1.6-2.2,2.7c-0.4,1.1-0.6,2.3-0.3,3.5
	c0.2,1.2,0.8,2.3,1.6,3.1c0.8,0.8,1.9,1.4,3,1.7s2.3,0.1,3.4-0.3c1.1-0.5,2-1.2,2.6-2.2c0.6-1,1-2.2,1-3.4c0-0.8-0.2-1.6-0.4-2.3
	c-0.3-0.7-0.7-1.4-1.3-2c-0.5-0.6-1.2-1-1.9-1.3C295,14.5,294.2,14.4,293.5,14.4z"/>
<path class="st0" d="M278.6,16.9c0.7,0,1.4,0.2,2,0.6c0.6,0.4,1,1,1.3,1.6s0.3,1.4,0.2,2.1c-0.1,0.7-0.5,1.3-1,1.8
	c-0.5,0.5-1.1,0.8-1.8,1c-0.7,0.1-1.4,0.1-2.1-0.2c-0.7-0.3-1.2-0.7-1.6-1.3c-0.4-0.6-0.6-1.3-0.6-2c0-0.9,0.4-1.9,1.1-2.5
	C276.7,17.2,277.6,16.9,278.6,16.9z M278.6,14.4c-1.2,0-2.4,0.4-3.4,1c-1,0.7-1.8,1.6-2.2,2.7c-0.5,1.1-0.6,2.3-0.3,3.5
	c0.2,1.2,0.8,2.3,1.7,3.1c0.8,0.8,1.9,1.4,3.1,1.7c1.2,0.2,2.4,0.1,3.5-0.3c1.1-0.5,2.1-1.2,2.7-2.2c0.7-1,1-2.2,1-3.4
	c0-1.6-0.6-3.1-1.8-4.3C281.7,15,280.2,14.4,278.6,14.4z"/>
<path class="st0" d="M263.7,18.1c0.5,0,0.9,0.1,1.3,0.4c0.4,0.3,0.7,0.6,0.8,1.1c0.2,0.4,0.2,0.9,0.1,1.4c-0.1,0.5-0.3,0.9-0.6,1.2
	c-0.3,0.3-0.7,0.6-1.2,0.6c-0.4,0.1-0.9,0-1.3-0.1c-0.4-0.2-0.8-0.5-1-0.9c-0.3-0.4-0.4-0.8-0.4-1.3c0-0.6,0.2-1.2,0.7-1.7
	C262.5,18.3,263.1,18.1,263.7,18.1z M263.7,14.4c-1.2,0-2.3,0.4-3.3,1c-1,0.7-1.7,1.6-2.2,2.7c-0.4,1.1-0.6,2.3-0.3,3.5
	c0.2,1.2,0.8,2.3,1.6,3.1c0.8,0.8,1.9,1.4,3,1.7c1.1,0.2,2.3,0.1,3.4-0.3c1.1-0.5,2-1.2,2.6-2.2c0.6-1,1-2.2,1-3.4
	c0-1.6-0.6-3.1-1.7-4.3C266.8,15,265.3,14.4,263.7,14.4z"/>
<path class="st0" d="M248.5,19.3c0.2,0,0.4,0.1,0.6,0.2c0.2,0.1,0.3,0.3,0.4,0.5c0.1,0.2,0.1,0.4,0.1,0.6c0,0.2-0.1,0.4-0.3,0.6
	c-0.2,0.2-0.4,0.3-0.6,0.3c-0.2,0-0.4,0-0.6-0.1c-0.2-0.1-0.4-0.2-0.5-0.4c-0.1-0.2-0.2-0.4-0.2-0.6c0-0.3,0.1-0.6,0.3-0.8
	C247.9,19.4,248.2,19.3,248.5,19.3z M248.5,14.4c-1.2,0-2.4,0.4-3.4,1c-1,0.7-1.8,1.6-2.2,2.7c-0.5,1.1-0.6,2.3-0.3,3.5
	c0.2,1.2,0.8,2.3,1.7,3.1c0.8,0.8,1.9,1.4,3.1,1.7c1.2,0.2,2.4,0.1,3.5-0.3c1.1-0.5,2.1-1.2,2.7-2.2c0.7-1,1-2.2,1-3.4
	c0-0.8-0.2-1.6-0.5-2.3s-0.7-1.4-1.3-2c-0.6-0.6-1.2-1-2-1.3C250.1,14.5,249.3,14.4,248.5,14.4z"/>
<path class="st0" d="M233.6,26.5c3.3,0,5.9-2.7,5.9-6.1s-2.6-6.1-5.9-6.1c-3.3,0-5.9,2.7-5.9,6.1S230.4,26.5,233.6,26.5z"/>
<path class="st0" d="M233.6,30.3c0.9,0,1.8,0.3,2.6,0.8c0.8,0.5,1.4,1.2,1.7,2.1c0.4,0.9,0.4,1.8,0.3,2.7c-0.2,0.9-0.6,1.7-1.3,2.4
	c-0.7,0.7-1.5,1.1-2.4,1.3c-0.9,0.2-1.9,0.1-2.7-0.3c-0.9-0.4-1.6-1-2.1-1.7c-0.5-0.8-0.8-1.7-0.8-2.6c0-1.2,0.5-2.4,1.4-3.3
	C231.2,30.8,232.4,30.3,233.6,30.3z M233.6,29.1c-1.2,0-2.3,0.3-3.3,1c-1,0.6-1.7,1.6-2.2,2.6c-0.4,1.1-0.6,2.3-0.3,3.4
	c0.2,1.1,0.8,2.2,1.6,3c0.8,0.8,1.9,1.4,3,1.6c1.1,0.2,2.3,0.1,3.4-0.3c1.1-0.4,2-1.2,2.6-2.2c0.6-1,1-2.1,1-3.3
	c0-0.8-0.2-1.5-0.4-2.3c-0.3-0.7-0.7-1.4-1.3-1.9c-0.5-0.5-1.2-1-1.9-1.3C235.2,29.3,234.4,29.1,233.6,29.1z"/>
<path class="st0" d="M248.5,31.5c0.7,0,1.4,0.2,2,0.6c0.6,0.4,1,0.9,1.3,1.6s0.3,1.3,0.2,2c-0.1,0.7-0.5,1.3-1,1.8
	c-0.5,0.5-1.1,0.8-1.8,1c-0.7,0.1-1.4,0.1-2.1-0.2c-0.7-0.3-1.2-0.7-1.6-1.3c-0.4-0.6-0.6-1.2-0.6-1.9c0-0.9,0.4-1.8,1.1-2.5
	C246.6,31.9,247.6,31.5,248.5,31.5z M248.5,29.1c-1.2,0-2.4,0.3-3.4,1c-1,0.6-1.8,1.6-2.2,2.6c-0.5,1.1-0.6,2.3-0.3,3.4
	c0.2,1.1,0.8,2.2,1.7,3c0.8,0.8,1.9,1.4,3.1,1.6s2.4,0.1,3.5-0.3c1.1-0.4,2.1-1.2,2.7-2.2c0.7-1,1-2.1,1-3.3c0-0.8-0.2-1.5-0.5-2.3
	s-0.7-1.4-1.3-1.9c-0.6-0.5-1.2-1-2-1.3C250.1,29.3,249.3,29.1,248.5,29.1z"/>
<path class="st0" d="M263.7,32.7c0.5,0,0.9,0.1,1.3,0.4c0.4,0.3,0.7,0.6,0.8,1c0.2,0.4,0.2,0.9,0.1,1.3c-0.1,0.4-0.3,0.9-0.6,1.2
	c-0.3,0.3-0.7,0.5-1.2,0.6s-0.9,0-1.3-0.1c-0.4-0.2-0.8-0.5-1-0.8s-0.4-0.8-0.4-1.3c0-0.6,0.2-1.2,0.7-1.6
	C262.5,33,263.1,32.7,263.7,32.7z M263.7,29.1c-1.2,0-2.3,0.3-3.3,1c-1,0.6-1.7,1.6-2.2,2.6c-0.4,1.1-0.6,2.3-0.3,3.4
	c0.2,1.1,0.8,2.2,1.6,3c0.8,0.8,1.9,1.4,3,1.6s2.3,0.1,3.4-0.3c1.1-0.4,2-1.2,2.6-2.2c0.6-1,1-2.1,1-3.3c0-1.6-0.6-3.1-1.7-4.2
	C266.8,29.7,265.3,29.1,263.7,29.1z"/>
<path class="st0" d="M278.6,33.9c0.2,0,0.4,0.1,0.6,0.2c0.2,0.1,0.3,0.3,0.4,0.5c0.1,0.2,0.1,0.4,0.1,0.6c0,0.2-0.1,0.4-0.3,0.6
	c-0.2,0.2-0.4,0.3-0.6,0.3c-0.2,0-0.4,0-0.6-0.1c-0.2-0.1-0.4-0.2-0.5-0.4c-0.1-0.2-0.2-0.4-0.2-0.6c0-0.3,0.1-0.6,0.3-0.8
	C278,34,278.3,33.9,278.6,33.9z M278.6,29.1c-1.2,0-2.4,0.3-3.4,1c-1,0.6-1.8,1.6-2.2,2.6c-0.5,1.1-0.6,2.3-0.3,3.4
	c0.2,1.1,0.8,2.2,1.7,3c0.8,0.8,1.9,1.4,3.1,1.6c1.2,0.2,2.4,0.1,3.5-0.3c1.1-0.4,2.1-1.2,2.7-2.2c0.7-1,1-2.1,1-3.3
	c0-1.6-0.6-3.1-1.8-4.2C281.7,29.7,280.2,29.1,278.6,29.1z"/>
<path class="st0" d="M293.5,40.9c3.3,0,5.9-2.6,5.9-5.9s-2.6-5.9-5.9-5.9c-3.3,0-5.9,2.6-5.9,5.9S290.2,40.9,293.5,40.9z"/>
<path class="st0" d="M293.5,45c0.9,0,1.8,0.3,2.6,0.8c0.8,0.5,1.4,1.2,1.7,2c0.4,0.8,0.4,1.7,0.3,2.6c-0.2,0.9-0.6,1.7-1.3,2.3
	c-0.7,0.6-1.5,1.1-2.4,1.2s-1.9,0.1-2.7-0.3c-0.9-0.3-1.6-0.9-2.1-1.7c-0.5-0.7-0.8-1.6-0.8-2.5c0-1.2,0.5-2.4,1.4-3.2
	C291,45.5,292.2,45,293.5,45z M293.5,43.8c-1.2,0-2.3,0.3-3.3,1c-1,0.6-1.7,1.5-2.2,2.6c-0.4,1-0.6,2.2-0.3,3.3
	c0.2,1.1,0.8,2.1,1.6,2.9c0.8,0.8,1.9,1.3,3,1.6c1.1,0.2,2.3,0.1,3.4-0.3c1.1-0.4,2-1.2,2.6-2.1c0.6-0.9,1-2,1-3.2
	c0-0.8-0.2-1.5-0.4-2.2c-0.3-0.7-0.7-1.3-1.3-1.9s-1.2-1-1.9-1.2C295,44,294.2,43.8,293.5,43.8z"/>
<path class="st0" d="M278.6,46.2c0.7,0,1.4,0.2,2,0.6c0.6,0.4,1,0.9,1.3,1.5c0.3,0.6,0.3,1.3,0.2,2c-0.1,0.7-0.5,1.3-1,1.7
	c-0.5,0.5-1.1,0.8-1.8,0.9c-0.7,0.1-1.4,0.1-2.1-0.2c-0.7-0.3-1.2-0.7-1.6-1.2c-0.4-0.6-0.6-1.2-0.6-1.9c0-0.9,0.4-1.8,1.1-2.4
	C276.7,46.5,277.6,46.2,278.6,46.2z M278.6,43.8c-1.2,0-2.4,0.3-3.4,1c-1,0.6-1.8,1.5-2.2,2.6c-0.5,1-0.6,2.2-0.3,3.3
	c0.2,1.1,0.8,2.1,1.7,2.9c0.8,0.8,1.9,1.3,3.1,1.6c1.2,0.2,2.4,0.1,3.5-0.3c1.1-0.4,2.1-1.2,2.7-2.1c0.7-0.9,1-2,1-3.2
	c0-0.8-0.2-1.5-0.5-2.2c-0.3-0.7-0.7-1.3-1.3-1.9c-0.6-0.5-1.2-1-2-1.2S279.4,43.8,278.6,43.8z"/>
<path class="st0" d="M263.7,47.3c0.5,0,0.9,0.1,1.3,0.4c0.4,0.2,0.7,0.6,0.8,1c0.2,0.4,0.2,0.9,0.1,1.3s-0.3,0.8-0.6,1.1
	c-0.3,0.3-0.7,0.5-1.2,0.6c-0.4,0.1-0.9,0-1.3-0.1s-0.8-0.5-1-0.8c-0.3-0.4-0.4-0.8-0.4-1.2c0-0.6,0.2-1.2,0.7-1.6
	C262.5,47.6,263.1,47.3,263.7,47.3z M263.7,43.8c-1.2,0-2.3,0.3-3.3,1c-1,0.6-1.7,1.5-2.2,2.6c-0.4,1-0.6,2.2-0.3,3.3
	c0.2,1.1,0.8,2.1,1.6,2.9c0.8,0.8,1.9,1.3,3,1.6c1.1,0.2,2.3,0.1,3.4-0.3c1.1-0.4,2-1.2,2.6-2.1c0.6-0.9,1-2,1-3.2
	c0-0.8-0.2-1.5-0.4-2.2c-0.3-0.7-0.7-1.3-1.3-1.9c-0.5-0.5-1.2-1-1.9-1.2C265.2,44,264.5,43.8,263.7,43.8z"/>
<path class="st0" d="M248.5,48.5c0.2,0,0.4,0.1,0.6,0.2c0.2,0.1,0.3,0.3,0.4,0.5s0.1,0.4,0.1,0.6s-0.1,0.4-0.3,0.5
	c-0.2,0.1-0.4,0.2-0.6,0.3c-0.2,0-0.4,0-0.6-0.1c-0.2-0.1-0.4-0.2-0.5-0.4c-0.1-0.2-0.2-0.4-0.2-0.6c0-0.3,0.1-0.5,0.3-0.7
	C247.9,48.6,248.2,48.5,248.5,48.5z M248.5,43.8c-1.2,0-2.4,0.3-3.4,1c-1,0.6-1.8,1.5-2.2,2.6c-0.5,1-0.6,2.2-0.3,3.3
	c0.2,1.1,0.8,2.1,1.7,2.9c0.8,0.8,1.9,1.3,3.1,1.6c1.2,0.2,2.4,0.1,3.5-0.3c1.1-0.4,2.1-1.2,2.7-2.1c0.7-0.9,1-2,1-3.2
	c0-0.8-0.2-1.5-0.5-2.2s-0.8-1.3-1.3-1.9c-0.6-0.5-1.2-1-2-1.2C250.1,44,249.3,43.8,248.5,43.8z"/>
<path class="st0" d="M233.6,55.3c3.3,0,5.9-2.6,5.9-5.7c0-3.2-2.6-5.7-5.9-5.7c-3.3,0-5.9,2.6-5.9,5.7
	C227.7,52.7,230.4,55.3,233.6,55.3z"/>
<path class="st0" d="M233.6,59.4c0.9,0,1.8,0.3,2.6,0.8c0.8,0.5,1.4,1.2,1.7,2.1c0.4,0.9,0.4,1.8,0.3,2.7c-0.2,0.9-0.6,1.7-1.3,2.4
	c-0.7,0.7-1.5,1.1-2.4,1.3s-1.9,0.1-2.7-0.3c-0.9-0.4-1.6-1-2.1-1.7s-0.8-1.7-0.8-2.6c0-1.2,0.5-2.4,1.4-3.3
	C231.2,59.9,232.4,59.4,233.6,59.4z M233.6,58.2c-1.2,0-2.3,0.3-3.3,1c-1,0.6-1.7,1.6-2.2,2.6c-0.4,1.1-0.6,2.3-0.3,3.4
	c0.2,1.1,0.8,2.2,1.6,3c0.8,0.8,1.9,1.4,3,1.6c1.1,0.2,2.3,0.1,3.4-0.3c1.1-0.4,2-1.2,2.6-2.2s1-2.1,1-3.3c0-1.6-0.6-3.1-1.7-4.2
	C236.7,58.8,235.2,58.2,233.6,58.2z"/>
<path class="st0" d="M248.5,60.6c0.7,0,1.4,0.2,2,0.6c0.6,0.4,1,0.9,1.3,1.6c0.3,0.6,0.3,1.3,0.2,2s-0.5,1.3-1,1.8
	c-0.5,0.5-1.1,0.8-1.8,1c-0.7,0.1-1.4,0.1-2.1-0.2s-1.2-0.7-1.6-1.3c-0.4-0.6-0.6-1.2-0.6-1.9c0-0.9,0.4-1.8,1.1-2.5
	C246.6,61,247.6,60.6,248.5,60.6z M248.5,58.2c-1.2,0-2.4,0.3-3.4,1c-1,0.6-1.8,1.6-2.2,2.6c-0.5,1.1-0.6,2.3-0.3,3.4
	c0.2,1.1,0.8,2.2,1.7,3c0.8,0.8,1.9,1.4,3.1,1.6c1.2,0.2,2.4,0.1,3.5-0.3c1.1-0.4,2.1-1.2,2.7-2.2c0.7-1,1-2.1,1-3.3
	c0-1.6-0.6-3.1-1.8-4.2C251.6,58.8,250.1,58.2,248.5,58.2z"/>
<path class="st0" d="M263.7,61.8c0.5,0,0.9,0.1,1.3,0.4c0.4,0.3,0.7,0.6,0.8,1c0.2,0.4,0.2,0.9,0.1,1.3c-0.1,0.4-0.3,0.9-0.6,1.2
	c-0.3,0.3-0.7,0.5-1.2,0.6c-0.4,0.1-0.9,0-1.3-0.1c-0.4-0.2-0.8-0.5-1-0.8c-0.3-0.4-0.4-0.8-0.4-1.3c0-0.6,0.2-1.2,0.7-1.6
	C262.5,62.1,263.1,61.8,263.7,61.8z M263.7,58.2c-1.2,0-2.3,0.3-3.3,1c-1,0.6-1.7,1.6-2.2,2.6c-0.4,1.1-0.6,2.3-0.3,3.4
	c0.2,1.1,0.8,2.2,1.6,3c0.8,0.8,1.9,1.4,3,1.6c1.1,0.2,2.3,0.1,3.4-0.3c1.1-0.4,2-1.2,2.6-2.2s1-2.1,1-3.3c0-1.6-0.6-3.1-1.7-4.2
	C266.8,58.8,265.3,58.2,263.7,58.2z"/>
<path class="st0" d="M278.6,63c0.2,0,0.4,0.1,0.6,0.2c0.2,0.1,0.3,0.3,0.4,0.5c0.1,0.2,0.1,0.4,0.1,0.6c0,0.2-0.1,0.4-0.3,0.6
	c-0.2,0.2-0.4,0.3-0.6,0.3c-0.2,0-0.4,0-0.6-0.1c-0.2-0.1-0.4-0.2-0.5-0.4c-0.1-0.2-0.2-0.4-0.2-0.6c0-0.3,0.1-0.6,0.3-0.8
	C278,63.1,278.3,63,278.6,63z M278.6,58.2c-1.2,0-2.4,0.3-3.4,1c-1,0.6-1.8,1.6-2.2,2.6c-0.5,1.1-0.6,2.3-0.3,3.4
	c0.2,1.1,0.8,2.2,1.7,3c0.8,0.8,1.9,1.4,3.1,1.6c1.2,0.2,2.4,0.1,3.5-0.3c1.1-0.4,2.1-1.2,2.7-2.2c0.7-1,1-2.1,1-3.3
	c0-1.6-0.6-3.1-1.8-4.2C281.7,58.8,280.2,58.2,278.6,58.2z"/>
<path class="st0" d="M293.5,70c3.3,0,5.9-2.6,5.9-5.9c0-3.3-2.6-5.9-5.9-5.9c-3.3,0-5.9,2.6-5.9,5.9C287.6,67.4,290.2,70,293.5,70z"
	/>
</svg>
